<svg width="1599" height="808" viewBox="0 0 1599 808" fill="none" xmlns="http://www.w3.org/2000/svg">
<path opacity="0.53" d="M427.205 108.215C405.742 74.0753 375.728 46.1391 340.14 27.1759C304.551 8.21275 264.624 -1.11868 224.317 0.106865C184.01 1.33241 144.723 13.0724 110.353 34.1627C75.9819 55.2529 47.7209 84.961 28.3716 120.341L231.348 231.348L427.205 108.215Z" fill="#548765"/>
<path opacity="0.3" d="M427.735 109.063C456.203 154.782 467.828 209 460.606 262.371L231.347 231.348L427.735 109.063Z" fill="#D7B030"/>
<path opacity="0.3" d="M27.9852 121.051C5.31264 162.854 -3.92659 210.628 1.52534 257.87L231.348 231.348L27.9852 121.051Z" fill="#D7B030"/>
<path d="M164.8 388.25C164.438 388.25 164.118 388.125 163.84 387.875C163.59 387.597 163.464 387.277 163.464 386.915V361.12C163.464 360.758 163.59 360.452 163.84 360.202C164.09 359.951 164.41 359.826 164.8 359.826C165.19 359.826 165.51 359.951 165.76 360.202C166.038 360.452 166.177 360.758 166.177 361.12V373.642L184.042 371.137V361.12C184.042 360.758 184.167 360.452 184.417 360.202C184.668 359.951 184.988 359.826 185.377 359.826C185.739 359.826 186.045 359.951 186.296 360.202C186.574 360.452 186.713 360.758 186.713 361.12V386.915C186.713 387.277 186.574 387.597 186.296 387.875C186.045 388.125 185.739 388.25 185.377 388.25C185.016 388.25 184.696 388.125 184.417 387.875C184.167 387.597 184.042 387.277 184.042 386.915V373.85L166.177 376.313V386.915C166.177 387.277 166.038 387.597 165.76 387.875C165.482 388.125 165.162 388.25 164.8 388.25ZM199.095 388.376C197.537 388.376 196.299 388.028 195.38 387.332C194.49 386.637 193.836 385.454 193.419 383.784C193.001 382.115 192.793 379.791 192.793 376.814C192.793 373.614 192.96 370.984 193.293 368.925C193.377 368.369 193.516 367.979 193.711 367.757C193.933 367.506 194.24 367.381 194.629 367.381C194.963 367.381 195.241 367.492 195.464 367.715C195.714 367.937 195.84 368.243 195.84 368.633C195.84 369.05 195.798 369.593 195.714 370.261C195.464 372.264 195.339 374.783 195.339 377.816C195.339 380.737 195.631 382.838 196.215 384.118C196.8 385.398 197.773 386.038 199.137 386.038C200.389 386.038 201.641 385.718 202.893 385.078C204.173 384.41 205.078 383.77 205.607 383.158C205.94 382.769 206.107 382.143 206.107 381.28L206.274 368.55C206.274 368.216 206.4 367.937 206.65 367.715C206.9 367.492 207.193 367.381 207.527 367.381C207.86 367.381 208.153 367.492 208.403 367.715C208.653 367.937 208.779 368.216 208.779 368.55V386.957C208.779 387.29 208.64 387.597 208.361 387.875C208.083 388.125 207.763 388.25 207.401 388.25C206.956 388.25 206.594 388.111 206.316 387.833C206.066 387.555 205.94 387.207 205.94 386.79V385.203C205.328 386.01 204.382 386.748 203.102 387.416C201.85 388.056 200.514 388.376 199.095 388.376ZM216.072 388.25C215.711 388.25 215.391 388.125 215.112 387.875C214.862 387.624 214.737 387.332 214.737 386.998V368.717C214.737 368.383 214.862 368.09 215.112 367.84C215.391 367.562 215.711 367.423 216.072 367.423C216.434 367.423 216.74 367.562 216.991 367.84C217.241 368.09 217.366 368.383 217.366 368.717V373.517C218.284 371.708 219.467 370.247 220.914 369.134C222.389 367.993 223.836 367.423 225.255 367.423C226.451 367.423 227.523 367.784 228.469 368.508C229.443 369.203 230.111 370.414 230.472 372.139C231.474 370.525 232.601 369.343 233.853 368.591C235.105 367.812 236.344 367.423 237.568 367.423C239.265 367.423 240.615 368.049 241.617 369.301C242.646 370.553 243.161 372.501 243.161 375.144V386.998C243.161 387.332 243.022 387.624 242.744 387.875C242.493 388.125 242.187 388.25 241.825 388.25C241.464 388.25 241.158 388.125 240.907 387.875C240.657 387.624 240.531 387.332 240.531 386.998V374.852C240.531 373.127 240.253 371.875 239.697 371.096C239.14 370.289 238.319 369.885 237.234 369.885C236.399 369.885 235.467 370.205 234.438 370.845C233.436 371.485 232.573 372.39 231.85 373.558C231.126 374.727 230.764 376.063 230.764 377.565V386.998C230.764 387.332 230.639 387.624 230.389 387.875C230.138 388.125 229.832 388.25 229.471 388.25C229.109 388.25 228.789 388.125 228.511 387.875C228.26 387.624 228.135 387.332 228.135 386.998V374.852C228.135 373.099 227.884 371.833 227.384 371.054C226.883 370.275 226.062 369.885 224.921 369.885C223.975 369.885 223.001 370.289 221.999 371.096C220.998 371.875 220.079 372.835 219.244 373.976C218.493 375.033 217.992 376.021 217.742 376.939C217.491 377.857 217.366 379.137 217.366 380.779V386.998C217.366 387.332 217.241 387.624 216.991 387.875C216.74 388.125 216.434 388.25 216.072 388.25ZM262.993 388.584C262.576 388.584 262.256 388.445 262.033 388.167C261.811 387.917 261.699 387.597 261.699 387.207V386.038C260.948 386.706 260.044 387.249 258.986 387.666C257.929 388.056 256.872 388.25 255.814 388.25C254.312 388.25 252.962 387.875 251.765 387.123C250.569 386.372 249.623 385.315 248.927 383.951C248.259 382.56 247.925 380.988 247.925 379.235C247.925 377.343 248.315 375.492 249.094 373.683C249.901 371.847 251.056 370.344 252.558 369.176C254.089 368.007 255.884 367.423 257.943 367.423C259.223 367.423 260.35 367.59 261.324 367.923C262.298 368.257 263.285 368.661 264.287 369.134V387.207C264.287 387.597 264.162 387.917 263.912 388.167C263.661 388.445 263.355 388.584 262.993 388.584ZM255.814 385.788C256.899 385.788 257.985 385.537 259.07 385.037C260.155 384.508 260.99 383.951 261.574 383.367L261.741 370.72C261.296 370.525 260.712 370.344 259.988 370.177C259.292 369.983 258.638 369.885 258.026 369.885C256.663 369.885 255.411 370.289 254.27 371.096C253.129 371.903 252.225 373.016 251.557 374.435C250.917 375.826 250.597 377.398 250.597 379.151C250.597 381.183 251.084 382.797 252.058 383.993C253.032 385.19 254.284 385.788 255.814 385.788ZM272.118 388.25C271.757 388.25 271.437 388.125 271.158 387.875C270.908 387.624 270.783 387.346 270.783 387.04V368.633C270.783 368.271 270.908 367.979 271.158 367.757C271.437 367.506 271.757 367.381 272.118 367.381C272.48 367.381 272.786 367.506 273.037 367.757C273.287 367.979 273.412 368.271 273.412 368.633V375.228C274.219 372.723 275.332 370.803 276.752 369.468C278.198 368.104 279.826 367.423 281.635 367.423C283.165 367.423 284.376 367.812 285.266 368.591C286.157 369.37 286.797 370.609 287.186 372.306C287.576 373.976 287.771 376.23 287.771 379.068C287.771 381.85 287.757 383.673 287.729 384.536V386.915C287.729 387.277 287.604 387.597 287.353 387.875C287.131 388.125 286.838 388.25 286.477 388.25C286.143 388.25 285.851 388.125 285.6 387.875C285.35 387.597 285.225 387.29 285.225 386.957V384.619C285.197 383.757 285.183 381.962 285.183 379.235C285.183 376.647 285.044 374.685 284.765 373.35C284.515 372.014 284.112 371.11 283.555 370.637C283.026 370.136 282.261 369.885 281.259 369.885C280.313 369.885 279.381 370.233 278.463 370.929C277.545 371.624 276.738 372.612 276.042 373.892C275.124 375.562 274.456 377.134 274.038 378.609C273.649 380.083 273.44 381.6 273.412 383.158L273.371 386.873C273.371 387.263 273.245 387.597 272.995 387.875C272.772 388.125 272.48 388.25 272.118 388.25Z" fill="#424346"/>
<path d="M207.96 233.352C207.96 231.641 207.245 229.01 208.062 228.397C217.998 220.989 229.237 218.256 241.089 222.113C245.431 223.518 250.923 227.069 252.303 230.926C259.506 251.079 269.697 271.207 256.364 296.494C264.435 295.115 269.416 294.297 274.346 293.378C285.432 291.283 296.721 289.93 307.501 286.813C321.192 282.829 323.133 278.997 322.903 264.004C322.75 253.582 316.773 244.387 306.249 242.624C296.721 241.015 291.383 236.519 286.964 228.346C279.122 213.863 266.836 208.959 250.055 211.232C237.999 212.867 225.329 209.699 213.094 210.721C204.001 211.462 191.255 212.662 187.015 218.588C176.645 233.071 161.268 239.176 147.934 248.678" stroke="#424346" stroke-width="2.55428" stroke-linecap="round" stroke-linejoin="round"/>
<path d="M195.189 295.933C182.852 293.378 170.387 291.207 158.178 288.168C139.378 283.493 134.5 267.274 146.658 251.233" stroke="#424346" stroke-width="2.55428" stroke-linecap="round" stroke-linejoin="round"/>
<path d="M279.481 215.473C279.915 206.533 281.55 197.439 280.4 188.704C279.328 180.53 272.176 178.231 264.155 178.333C255.164 178.436 253.708 185.383 252.993 191.258C252.303 197.031 254.347 203.135 255.215 209.087" stroke="#424346" stroke-width="2.55428" stroke-linecap="round" stroke-linejoin="round"/>
<path d="M184.971 212.919C184.128 204.413 181.931 195.729 182.876 187.427C183.54 181.527 188.368 177.031 196.516 178.181C203.413 179.177 207.346 181.476 208.036 188.653C208.649 195.065 209.696 201.425 210.539 207.81" stroke="#424346" stroke-width="2.55428" stroke-linecap="round" stroke-linejoin="round"/>
<path d="M257.77 295.932C244.666 313.914 226.837 311.513 209.34 305.894C194.628 301.168 194.372 286.507 191.384 274.22C191.282 273.812 191.384 273.377 191.384 272.943C191.511 260.913 188.548 246.123 199.43 239.022C215.062 228.805 233.351 224.284 251.409 235.906" stroke="#424346" stroke-width="2.55428" stroke-linecap="round" stroke-linejoin="round"/>
<path opacity="0.53" d="M979.128 86.1195C957.306 59.0603 929.667 37.2664 898.265 22.3576C866.862 7.44874 832.503 -0.191835 797.742 0.00365843C762.981 0.199152 728.71 8.22568 697.477 23.4868C666.245 38.7479 638.852 60.8512 617.336 88.1542L799.043 231.348L979.128 86.1195Z" fill="#548765"/>
<path opacity="0.3" d="M617.224 88.2964C589.848 123.092 573.031 165.012 568.769 209.081C564.508 253.149 572.981 297.515 593.184 336.911L799.043 231.348L617.224 88.2964Z" fill="#D7B030"/>
<path opacity="0.3" d="M978.641 85.5178C1008.73 122.577 1026.62 168.038 1029.86 215.667C1033.09 263.295 1021.52 310.758 996.714 351.547L799.043 231.348L978.641 85.5178Z" fill="#D7B030"/>
<path d="M776.217 388.25C774.186 388.25 772.363 387.694 770.749 386.581C769.163 385.44 767.925 383.882 767.034 381.906C766.144 379.903 765.699 377.663 765.699 375.186C765.699 372.403 766.255 369.83 767.368 367.464C768.481 365.099 769.984 363.235 771.876 361.871C773.768 360.48 775.814 359.784 778.012 359.784C780.071 359.784 781.894 360.355 783.48 361.496C785.066 362.609 786.304 364.167 787.194 366.17C788.085 368.174 788.53 370.414 788.53 372.89C788.53 375.673 787.974 378.247 786.861 380.612C785.747 382.95 784.245 384.814 782.353 386.205C780.461 387.569 778.415 388.25 776.217 388.25ZM776.384 385.663C778.054 385.663 779.598 385.092 781.017 383.951C782.464 382.81 783.619 381.266 784.481 379.318C785.344 377.37 785.775 375.27 785.775 373.016C785.775 370.929 785.427 369.078 784.732 367.464C784.036 365.85 783.076 364.598 781.852 363.708C780.655 362.817 779.306 362.372 777.803 362.372C776.161 362.372 774.617 362.943 773.17 364.083C771.723 365.197 770.568 366.727 769.706 368.675C768.871 370.623 768.454 372.765 768.454 375.103C768.454 377.217 768.801 379.082 769.497 380.696C770.221 382.282 771.181 383.506 772.377 384.369C773.574 385.231 774.909 385.663 776.384 385.663ZM796.359 388.25C796.026 388.25 795.733 388.153 795.483 387.958C795.232 387.736 795.066 387.457 794.982 387.123L791.226 369.301L791.142 368.633C791.142 368.299 791.253 368.007 791.476 367.757C791.726 367.506 792.032 367.381 792.394 367.381C792.728 367.381 793.006 367.492 793.229 367.715C793.479 367.91 793.632 368.174 793.688 368.508L796.61 383.2L801.744 368.341C801.827 368.09 801.994 367.868 802.245 367.673C802.495 367.478 802.773 367.381 803.079 367.381C803.386 367.381 803.664 367.492 803.914 367.715C804.192 367.937 804.359 368.202 804.415 368.508L808.005 383.409L812.471 368.424C812.554 368.146 812.707 367.91 812.93 367.715C813.18 367.52 813.445 367.423 813.723 367.423C814.085 367.423 814.391 367.548 814.641 367.798C814.919 368.049 815.059 368.355 815.059 368.717C815.059 368.8 815.031 368.883 814.975 368.967C814.947 369.05 814.933 369.106 814.933 369.134L809.173 387.249C808.923 387.917 808.492 388.25 807.879 388.25C807.601 388.25 807.337 388.167 807.086 388C806.864 387.805 806.711 387.541 806.627 387.207L802.912 372.557L797.57 387.29C797.459 387.569 797.292 387.805 797.069 388C796.846 388.167 796.61 388.25 796.359 388.25ZM820.053 388.25C819.719 388.25 819.413 388.139 819.135 387.917C818.856 387.666 818.717 387.388 818.717 387.082V360.828C818.717 360.466 818.842 360.174 819.093 359.951C819.343 359.701 819.663 359.576 820.053 359.576C820.387 359.576 820.679 359.701 820.929 359.951C821.208 360.202 821.347 360.494 821.347 360.828V387.082C821.347 387.388 821.208 387.666 820.929 387.917C820.679 388.139 820.387 388.25 820.053 388.25Z" fill="#424346"/>
<path d="M704.857 182C720.465 202.284 742.558 211.04 766.44 216.66C773.849 218.411 781.239 220.278 789.63 222.317C792.459 216.871 795.577 210.867 799.272 203.766C802.659 210.732 805.545 216.66 808.432 222.587C823.231 218.623 837.953 215.601 852.002 210.655C868.206 204.959 883.063 196.491 893.455 182.019" stroke="#424346" stroke-width="1.92446" stroke-linecap="round" stroke-linejoin="round"/>
<path d="M732.762 248.394C750.005 259.652 769.634 263.116 790.938 265.637C788.205 274.855 785.607 283.65 782.952 292.637C793.555 297.217 803.505 297.352 815.167 293.022C812.762 284.381 810.298 275.548 807.604 265.906C827.638 262.481 848.056 260.075 865.53 248.028C865.53 247.758 865.78 246.738 865.492 246.546C864.664 246.026 863.606 245.834 862.644 245.507" stroke="#424346" stroke-width="1.92446" stroke-linecap="round" stroke-linejoin="round"/>
<path d="M883.831 230.112C886.602 232.095 889.392 234.077 892.164 236.059C891.759 237.079 891.336 238.08 890.932 239.1C886.005 237.387 881.059 235.674 876.133 233.961" stroke="#424346" stroke-width="1.92446" stroke-linecap="round" stroke-linejoin="round"/>
<path d="M892.493 185.85C892.166 188.409 891.839 190.969 891.377 194.567C893.956 193.836 896.111 193.22 898.267 192.604C897.093 202.939 893.744 207.057 885.758 207.981" stroke="#424346" stroke-width="1.92446" stroke-linecap="round" stroke-linejoin="round"/>
<path d="M705.82 194.509C703.896 193.874 701.971 193.22 700.047 192.585C701.125 202.169 704.781 206.672 712.556 207.98" stroke="#424346" stroke-width="1.92446" stroke-linecap="round" stroke-linejoin="round"/>
<path d="M717.365 238.771C720.81 240.253 724.255 241.716 727.719 243.217C727.334 243.929 726.641 245.18 724.986 248.182C729.451 247.066 732.549 246.296 735.648 245.526" stroke="#424346" stroke-width="1.92446" stroke-linecap="round" stroke-linejoin="round"/>
<path d="M880.945 238.771C877.5 240.253 874.056 241.716 870.592 243.217C870.976 243.929 871.669 245.18 872.92 247.432H866.512" stroke="#424346" stroke-width="1.92446" stroke-linecap="round" stroke-linejoin="round"/>
<path d="M705.819 207.019H694.273C694.08 207.711 693.888 208.404 693.695 209.116C697.005 210.829 700.335 212.542 704.318 214.601C701.874 215.64 699.488 216.66 696.255 218.046C696.12 221.163 706.705 220.836 698.814 227.264C704.684 228.342 709.591 229.227 714.479 230.112" stroke="#424346" stroke-width="1.92446" stroke-linecap="round" stroke-linejoin="round"/>
<path d="M893.455 207.019H904.039C904.232 207.711 904.424 208.404 904.617 209.116C901.307 210.829 897.977 212.542 893.994 214.601C896.438 215.64 898.824 216.66 902.057 218.046C902.192 221.163 891.607 220.836 898.439 226.417C894.763 227.995 891.222 229.535 887.662 231.074" stroke="#424346" stroke-width="1.92446" stroke-linecap="round" stroke-linejoin="round"/>
<path d="M710.631 232.036C709.669 233.326 708.706 234.596 707.744 235.885C707.898 236.674 708.052 237.463 708.225 238.233L721.235 234.923" stroke="#424346" stroke-width="1.92446" stroke-linecap="round" stroke-linejoin="round"/>
<path d="M705.82 185.849L708.707 197.396" stroke="black" stroke-width="1.92446" stroke-linecap="round" stroke-linejoin="round"/>
<path opacity="0.53" d="M1575.5 131.643C1556.68 92.2393 1527.09 58.9664 1490.16 35.6709C1453.23 12.3753 1410.45 0.00844822 1366.79 4.32525e-06C1323.12 -0.00843957 1280.34 12.3419 1243.4 35.6231C1206.45 58.9044 1176.85 92.1659 1158.02 131.562L1366.74 231.348L1575.5 131.643Z" fill="#548765"/>
<path opacity="0.3" d="M1575.67 131.996C1593.62 169.749 1601.01 211.661 1597.05 253.277C1593.08 294.893 1577.92 334.657 1553.16 368.344L1366.74 231.348L1575.67 131.996Z" fill="#D7B030"/>
<path opacity="0.3" d="M1158.5 130.569C1140.29 168.198 1132.61 210.059 1136.29 251.701C1139.97 293.343 1154.86 333.21 1179.38 367.065L1366.74 231.348L1158.5 130.569Z" fill="#D7B030"/>
<path d="M1364.07 581.25C1361.87 581.25 1359.85 580.736 1358.01 579.706C1356.18 578.677 1354.72 577.23 1353.63 575.365C1352.55 573.473 1352 571.303 1352 568.854C1352 566.127 1352.62 563.525 1353.84 561.049C1355.09 558.544 1356.71 556.541 1358.68 555.038C1360.69 553.536 1362.74 552.784 1364.86 552.784C1366.06 552.784 1367.09 552.937 1367.95 553.243C1368.81 553.522 1369.63 553.911 1370.41 554.412C1370.49 554.245 1370.63 554.106 1370.83 553.995C1371.02 553.883 1371.25 553.828 1371.5 553.828C1371.86 553.828 1372.16 553.953 1372.41 554.203C1372.66 554.454 1372.79 554.76 1372.79 555.122V557.793C1372.79 558.155 1372.65 558.475 1372.37 558.753C1372.12 559.003 1371.82 559.129 1371.45 559.129C1371.09 559.129 1370.77 559.003 1370.49 558.753C1370.24 558.503 1370.12 558.197 1370.12 557.835V557.501C1369.51 556.917 1368.8 556.43 1367.99 556.04C1367.18 555.623 1366.14 555.414 1364.86 555.414C1363.22 555.414 1361.62 556.04 1360.06 557.292C1358.5 558.544 1357.22 560.214 1356.22 562.301C1355.25 564.36 1354.76 566.544 1354.76 568.854C1354.76 570.83 1355.19 572.555 1356.05 574.03C1356.91 575.504 1358.06 576.645 1359.47 577.452C1360.89 578.231 1362.42 578.621 1364.07 578.621C1367.27 578.621 1369.87 577.313 1371.87 574.697C1372.04 574.503 1372.19 574.377 1372.33 574.322C1372.5 574.238 1372.69 574.197 1372.91 574.197C1373.28 574.197 1373.58 574.322 1373.83 574.572C1374.11 574.795 1374.25 575.115 1374.25 575.532C1374.25 575.866 1374.17 576.13 1374 576.325C1372.83 577.911 1371.38 579.136 1369.66 579.998C1367.93 580.833 1366.07 581.25 1364.07 581.25ZM1392.63 581.584C1392.21 581.584 1391.89 581.445 1391.67 581.167C1391.44 580.917 1391.33 580.597 1391.33 580.207V579.038C1390.58 579.706 1389.68 580.249 1388.62 580.666C1387.56 581.056 1386.5 581.25 1385.45 581.25C1383.94 581.25 1382.6 580.875 1381.4 580.123C1380.2 579.372 1379.26 578.315 1378.56 576.951C1377.89 575.56 1377.56 573.988 1377.56 572.235C1377.56 570.343 1377.95 568.492 1378.73 566.683C1379.53 564.847 1380.69 563.344 1382.19 562.176C1383.72 561.007 1385.52 560.423 1387.58 560.423C1388.86 560.423 1389.98 560.59 1390.96 560.923C1391.93 561.257 1392.92 561.661 1393.92 562.134V580.207C1393.92 580.597 1393.8 580.917 1393.54 581.167C1393.29 581.445 1392.99 581.584 1392.63 581.584ZM1385.45 578.788C1386.53 578.788 1387.62 578.537 1388.7 578.037C1389.79 577.508 1390.62 576.951 1391.21 576.367L1391.37 563.72C1390.93 563.525 1390.34 563.344 1389.62 563.177C1388.93 562.983 1388.27 562.885 1387.66 562.885C1386.3 562.885 1385.04 563.289 1383.9 564.096C1382.76 564.903 1381.86 566.016 1381.19 567.435C1380.55 568.826 1380.23 570.398 1380.23 572.151C1380.23 574.183 1380.72 575.797 1381.69 576.993C1382.66 578.19 1383.92 578.788 1385.45 578.788ZM1402.8 581.292C1402.43 581.292 1402.11 581.167 1401.84 580.917C1401.58 580.666 1401.46 580.374 1401.46 580.04V563.01H1396.83C1396.46 563.01 1396.16 562.885 1395.91 562.635C1395.66 562.357 1395.53 562.037 1395.53 561.675C1395.53 561.285 1395.67 560.979 1395.95 560.757C1396.23 560.506 1396.55 560.381 1396.91 560.381H1401.46V554.663C1401.46 554.301 1401.58 553.995 1401.84 553.744C1402.11 553.466 1402.43 553.327 1402.8 553.327C1403.18 553.327 1403.49 553.466 1403.71 553.744C1403.96 553.995 1404.09 554.301 1404.09 554.663V560.381H1408.76C1409.15 560.381 1409.47 560.506 1409.72 560.757C1409.97 561.007 1410.1 561.313 1410.1 561.675C1410.1 562.037 1409.96 562.357 1409.68 562.635C1409.43 562.885 1409.13 563.01 1408.76 563.01H1404.09V580.04C1404.09 580.374 1403.95 580.666 1403.67 580.917C1403.42 581.167 1403.13 581.292 1402.8 581.292Z" fill="#424346"/>
<path d="M1353.88 236.026C1353.03 237.534 1352.17 239.022 1351.58 240.081C1345.9 239.633 1347.63 235.578 1346.69 231.95C1350.11 229.668 1354.35 226.998 1358.39 224.084C1361.57 221.802 1363.93 223.575 1366.34 225.266C1369.41 227.447 1372.55 229.607 1375.38 232.093C1379.13 235.354 1381.58 239.47 1382.23 244.524C1382.84 249.272 1384.45 253.531 1387.14 257.688C1389.49 261.295 1390.4 265.86 1391.81 270.058C1392.16 271.077 1391.85 272.3 1391.85 274.908C1387.02 273.482 1383.11 272.34 1378.83 271.077C1376.52 276.579 1379.46 281.918 1381.74 286.993C1385.51 295.368 1389.36 303.642 1388.39 313.118C1387.94 317.499 1387.18 321.881 1386.12 326.16C1383.17 338.081 1384.7 349.718 1387.86 361.333C1393.11 380.672 1387.37 395.06 1374.22 408.917C1373.22 409.956 1371.55 410.343 1370.66 410.771C1370.86 421.042 1377.95 426.85 1383.9 433.33C1388.96 438.853 1394.62 443.907 1399.08 449.857C1407.34 460.862 1409.44 473.802 1408.17 487.191C1407.38 495.566 1405.81 503.86 1404.2 512.134C1403.69 514.702 1401.88 517.025 1400.39 520C1396.64 516.76 1397.39 513.397 1397.58 510.463C1398.15 501.191 1399.63 491.939 1399.59 482.667C1399.55 474.148 1398.55 465.345 1392.89 458.355C1388.79 453.281 1383.98 448.757 1379.34 444.131C1370.9 435.715 1361.24 428.46 1354.98 418.026C1353.48 415.499 1352.09 412.87 1350.32 409.712C1331.43 399.298 1326.54 382.629 1332.02 361.985C1335.81 347.7 1336.99 333.598 1333.85 319.435C1330.96 306.393 1333.63 294.696 1339.09 283.08C1340.82 279.371 1341.92 275.356 1343.14 271.892C1346.24 267.776 1349.2 263.802 1352.17 259.848" stroke="#424346" stroke-width="2.03785" stroke-linecap="round" stroke-linejoin="round"/>
<path d="M1345.94 233.193C1344.25 235.843 1341.27 238.39 1341.07 241.141C1340.43 249.7 1334.46 255.732 1331.73 263.231C1330.63 266.247 1329.12 269.141 1327.82 272.035C1333.08 276.498 1337.44 272.3 1341.96 271.749" stroke="#424346" stroke-width="2.03785" stroke-linecap="round" stroke-linejoin="round"/>
<path d="M1373.73 234.885C1375.89 237.147 1375.26 239.225 1372.57 239.877C1369.41 240.652 1367.25 239.164 1367.5 235.455" stroke="#424346" stroke-width="2.03785" stroke-linecap="round" stroke-linejoin="round"/>
<path d="M1369.19 260.42C1372.21 263.64 1375.24 266.839 1378.26 270.059Z" fill="#424346"/>
<path d="M1369.19 260.42C1372.21 263.64 1375.24 266.839 1378.26 270.059" stroke="#424346" stroke-width="2.03785" stroke-linecap="round" stroke-linejoin="round"/>
<rect opacity="0.53" x="285.045" y="743" width="52" height="52" rx="12" fill="#548765"/>
<path d="M380.013 779.256C379.138 779.256 378.701 778.851 378.701 778.04V758.52C378.701 758.243 378.797 758.008 378.989 757.816C379.202 757.603 379.448 757.496 379.725 757.496H385.485C387.021 757.496 388.312 757.763 389.357 758.296C390.424 758.808 391.213 759.48 391.725 760.312C392.258 761.123 392.525 761.965 392.525 762.84C392.525 763.885 392.322 764.781 391.917 765.528C391.533 766.275 391.032 766.872 390.413 767.32C393.08 768.301 394.413 770.061 394.413 772.6C394.413 774.733 393.208 776.376 390.797 777.528C388.386 778.68 384.792 779.256 380.013 779.256ZM386.797 766.776C387.48 766.776 388.109 766.595 388.685 766.232C389.261 765.869 389.709 765.389 390.029 764.792C390.349 764.195 390.509 763.576 390.509 762.936C390.509 761.912 390.061 761.08 389.165 760.44C388.269 759.779 387.042 759.448 385.485 759.448H380.781V766.776H386.797ZM380.781 777.336C384.152 777.315 386.925 776.909 389.101 776.12C391.277 775.331 392.365 774.157 392.365 772.6C392.365 771.448 391.885 770.52 390.925 769.816C389.965 769.091 388.685 768.728 387.085 768.728H380.781V777.336ZM399.633 760.696C399.355 760.696 399.121 760.6 398.929 760.408C398.737 760.216 398.641 759.981 398.641 759.704L398.673 758.392C398.673 758.136 398.779 757.912 398.993 757.72C399.206 757.528 399.441 757.432 399.697 757.432C399.953 757.432 400.177 757.539 400.369 757.752C400.561 757.944 400.657 758.168 400.657 758.424L400.625 759.736C400.625 760.013 400.518 760.248 400.305 760.44C400.113 760.611 399.889 760.696 399.633 760.696ZM399.441 779.192C399.163 779.192 398.918 779.096 398.705 778.904C398.491 778.691 398.385 778.445 398.385 778.168L398.577 764.28C398.577 764.003 398.683 763.757 398.897 763.544C399.11 763.331 399.355 763.224 399.633 763.224C399.91 763.224 400.145 763.331 400.337 763.544C400.55 763.736 400.657 763.981 400.657 764.28L400.465 778.168C400.465 778.445 400.358 778.691 400.145 778.904C399.953 779.096 399.718 779.192 399.441 779.192ZM406.659 779.192C406.381 779.192 406.136 779.096 405.923 778.904C405.731 778.712 405.635 778.499 405.635 778.264V764.152C405.635 763.875 405.731 763.651 405.923 763.48C406.136 763.288 406.381 763.192 406.659 763.192C406.936 763.192 407.171 763.288 407.363 763.48C407.555 763.651 407.651 763.875 407.651 764.152V769.208C408.269 767.288 409.123 765.816 410.211 764.792C411.32 763.747 412.568 763.224 413.955 763.224C415.128 763.224 416.056 763.523 416.739 764.12C417.421 764.717 417.912 765.667 418.211 766.968C418.509 768.248 418.659 769.976 418.659 772.152C418.659 774.285 418.648 775.683 418.627 776.344V778.168C418.627 778.445 418.531 778.691 418.339 778.904C418.168 779.096 417.944 779.192 417.667 779.192C417.411 779.192 417.187 779.096 416.995 778.904C416.803 778.691 416.707 778.456 416.707 778.2V776.408C416.685 775.747 416.675 774.371 416.675 772.28C416.675 770.296 416.568 768.792 416.355 767.768C416.163 766.744 415.853 766.051 415.427 765.688C415.021 765.304 414.435 765.112 413.667 765.112C412.941 765.112 412.227 765.379 411.523 765.912C410.819 766.445 410.2 767.203 409.667 768.184C408.963 769.464 408.451 770.669 408.131 771.8C407.832 772.931 407.672 774.093 407.651 775.288L407.619 778.136C407.619 778.435 407.523 778.691 407.331 778.904C407.16 779.096 406.936 779.192 406.659 779.192ZM428.794 779.192C427.578 779.192 426.469 778.872 425.466 778.232C424.485 777.571 423.706 776.685 423.13 775.576C422.576 774.445 422.298 773.197 422.298 771.832C422.298 770.381 422.618 768.995 423.258 767.672C423.92 766.349 424.826 765.283 425.978 764.472C427.13 763.64 428.4 763.224 429.786 763.224C430.981 763.224 432.069 763.555 433.05 764.216C434.053 764.856 434.832 765.741 435.386 766.872C435.962 767.981 436.25 769.208 436.25 770.552C436.25 772.088 435.909 773.517 435.226 774.84C434.544 776.163 433.626 777.219 432.474 778.008C431.344 778.797 430.117 779.192 428.794 779.192ZM428.922 777.368C429.84 777.368 430.704 777.059 431.514 776.44C432.325 775.821 432.976 775 433.466 773.976C433.957 772.952 434.202 771.864 434.202 770.712C434.202 769.709 434 768.781 433.594 767.928C433.189 767.053 432.634 766.36 431.93 765.848C431.248 765.315 430.48 765.048 429.626 765.048C428.688 765.048 427.813 765.368 427.002 766.008C426.213 766.627 425.573 767.459 425.082 768.504C424.613 769.528 424.378 770.616 424.378 771.768C424.378 772.877 424.581 773.859 424.986 774.712C425.413 775.544 425.978 776.195 426.682 776.664C427.386 777.133 428.133 777.368 428.922 777.368ZM446.212 779.192C444.974 779.192 443.812 778.893 442.724 778.296C441.657 777.677 440.804 776.835 440.164 775.768C439.545 774.701 439.236 773.528 439.236 772.248C439.236 770.797 439.566 769.379 440.228 767.992C440.91 766.584 441.806 765.443 442.916 764.568C444.025 763.672 445.177 763.224 446.372 763.224C447.481 763.224 448.388 763.405 449.092 763.768C449.817 764.131 450.51 764.696 451.172 765.464C451.342 765.635 451.428 765.859 451.428 766.136C451.428 766.413 451.332 766.648 451.14 766.84C450.969 767.032 450.745 767.128 450.468 767.128C450.169 767.128 449.924 767.011 449.732 766.776C449.262 766.221 448.782 765.805 448.292 765.528C447.801 765.229 447.182 765.08 446.436 765.08C445.582 765.08 444.75 765.421 443.94 766.104C443.129 766.787 442.468 767.683 441.956 768.792C441.444 769.88 441.188 771.011 441.188 772.184C441.188 773.251 441.433 774.179 441.924 774.968C442.436 775.736 443.076 776.323 443.844 776.728C444.633 777.133 445.422 777.336 446.212 777.336C448.046 777.336 449.476 776.6 450.5 775.128C450.777 774.744 451.076 774.552 451.396 774.552C451.673 774.552 451.908 774.648 452.1 774.84C452.292 775.032 452.388 775.256 452.388 775.512C452.388 775.725 452.281 775.971 452.068 776.248C451.513 777.059 450.713 777.752 449.668 778.328C448.622 778.904 447.47 779.192 446.212 779.192ZM460.049 779.288C458.855 779.288 457.905 779.021 457.201 778.488C456.519 777.955 456.017 777.048 455.697 775.768C455.377 774.488 455.217 772.707 455.217 770.424C455.217 767.971 455.345 765.955 455.601 764.376C455.665 763.949 455.772 763.651 455.921 763.48C456.092 763.288 456.327 763.192 456.625 763.192C456.881 763.192 457.095 763.277 457.265 763.448C457.457 763.619 457.553 763.853 457.553 764.152C457.553 764.472 457.521 764.888 457.457 765.4C457.265 766.936 457.169 768.867 457.169 771.192C457.169 773.432 457.393 775.043 457.841 776.024C458.289 777.005 459.036 777.496 460.081 777.496C461.041 777.496 462.001 777.251 462.961 776.76C463.943 776.248 464.636 775.757 465.041 775.288C465.297 774.989 465.425 774.509 465.425 773.848L465.553 764.088C465.553 763.832 465.649 763.619 465.841 763.448C466.033 763.277 466.257 763.192 466.513 763.192C466.769 763.192 466.993 763.277 467.185 763.448C467.377 763.619 467.473 763.832 467.473 764.088V778.2C467.473 778.456 467.367 778.691 467.153 778.904C466.94 779.096 466.695 779.192 466.417 779.192C466.076 779.192 465.799 779.085 465.585 778.872C465.393 778.659 465.297 778.392 465.297 778.072V776.856C464.828 777.475 464.103 778.04 463.121 778.552C462.161 779.043 461.137 779.288 460.049 779.288ZM473.065 779.192C472.809 779.192 472.574 779.107 472.361 778.936C472.148 778.744 472.041 778.531 472.041 778.296V758.168C472.041 757.891 472.137 757.667 472.329 757.496C472.521 757.304 472.766 757.208 473.065 757.208C473.321 757.208 473.545 757.304 473.737 757.496C473.95 757.688 474.057 757.912 474.057 758.168V778.296C474.057 778.531 473.95 778.744 473.737 778.936C473.545 779.107 473.321 779.192 473.065 779.192ZM489.569 779.448C489.249 779.448 489.004 779.341 488.833 779.128C488.662 778.936 488.577 778.691 488.577 778.392V777.496C488.001 778.008 487.308 778.424 486.497 778.744C485.686 779.043 484.876 779.192 484.065 779.192C482.913 779.192 481.878 778.904 480.961 778.328C480.044 777.752 479.318 776.941 478.785 775.896C478.273 774.829 478.017 773.624 478.017 772.28C478.017 770.829 478.316 769.411 478.913 768.024C479.532 766.616 480.417 765.464 481.569 764.568C482.742 763.672 484.118 763.224 485.697 763.224C486.678 763.224 487.542 763.352 488.289 763.608C489.036 763.864 489.793 764.173 490.561 764.536V778.392C490.561 778.691 490.465 778.936 490.273 779.128C490.081 779.341 489.846 779.448 489.569 779.448ZM484.065 777.304C484.897 777.304 485.729 777.112 486.561 776.728C487.393 776.323 488.033 775.896 488.481 775.448L488.609 765.752C488.268 765.603 487.82 765.464 487.265 765.336C486.732 765.187 486.23 765.112 485.761 765.112C484.716 765.112 483.756 765.421 482.881 766.04C482.006 766.659 481.313 767.512 480.801 768.6C480.31 769.667 480.065 770.872 480.065 772.216C480.065 773.773 480.438 775.011 481.185 775.928C481.932 776.845 482.892 777.304 484.065 777.304ZM496.565 779.192C496.309 779.192 496.074 779.096 495.861 778.904C495.648 778.712 495.541 778.499 495.541 778.264V764.184C495.541 763.907 495.637 763.683 495.829 763.512C496.042 763.32 496.288 763.224 496.565 763.224C496.864 763.224 497.109 763.32 497.301 763.512C497.493 763.683 497.589 763.907 497.589 764.184V766.904C498.186 765.859 498.922 764.973 499.797 764.248C500.693 763.501 501.738 763.128 502.933 763.128C503.872 763.128 504.544 763.395 504.949 763.928C505.376 764.44 505.589 765.059 505.589 765.784V766.808C505.589 767.085 505.493 767.32 505.301 767.512C505.109 767.683 504.874 767.768 504.597 767.768C504.277 767.768 504.042 767.672 503.893 767.48C503.744 767.288 503.669 767.053 503.669 766.776V766.04C503.669 765.421 503.306 765.112 502.581 765.112C501.322 765.112 500.021 766.008 498.677 767.8C498.357 768.227 498.09 768.76 497.877 769.4C497.685 770.04 497.589 770.637 497.589 771.192L497.557 778.264C497.557 778.499 497.45 778.712 497.237 778.904C497.045 779.096 496.821 779.192 496.565 779.192ZM522.979 779.224C522.553 779.224 522.243 778.989 522.051 778.52L516.355 764.568C516.313 764.397 516.291 764.28 516.291 764.216C516.291 763.939 516.387 763.704 516.579 763.512C516.793 763.32 517.049 763.224 517.347 763.224C517.753 763.224 518.062 763.448 518.275 763.896L522.979 775.768L527.715 763.8C527.801 763.629 527.918 763.491 528.067 763.384C528.238 763.256 528.43 763.192 528.643 763.192C528.921 763.192 529.155 763.299 529.347 763.512C529.561 763.704 529.667 763.928 529.667 764.184C529.667 764.312 529.625 764.461 529.539 764.632L523.907 778.584C523.715 779.011 523.406 779.224 522.979 779.224ZM533.57 760.696C533.293 760.696 533.058 760.6 532.866 760.408C532.674 760.216 532.578 759.981 532.578 759.704L532.61 758.392C532.61 758.136 532.717 757.912 532.93 757.72C533.144 757.528 533.378 757.432 533.634 757.432C533.89 757.432 534.114 757.539 534.306 757.752C534.498 757.944 534.594 758.168 534.594 758.424L534.562 759.736C534.562 760.013 534.456 760.248 534.242 760.44C534.05 760.611 533.826 760.696 533.57 760.696ZM533.378 779.192C533.101 779.192 532.856 779.096 532.642 778.904C532.429 778.691 532.322 778.445 532.322 778.168L532.514 764.28C532.514 764.003 532.621 763.757 532.834 763.544C533.048 763.331 533.293 763.224 533.57 763.224C533.848 763.224 534.082 763.331 534.274 763.544C534.488 763.736 534.594 763.981 534.594 764.28L534.402 778.168C534.402 778.445 534.296 778.691 534.082 778.904C533.89 779.096 533.656 779.192 533.378 779.192ZM543.668 779.256C542.452 779.256 541.396 779.011 540.5 778.52C539.626 778.008 538.954 777.421 538.484 776.76C538.036 776.077 537.812 775.501 537.812 775.032C537.812 774.755 537.898 774.531 538.068 774.36C538.26 774.168 538.495 774.072 538.772 774.072C539.242 774.072 539.54 774.296 539.668 774.744C539.967 775.597 540.468 776.259 541.172 776.728C541.876 777.197 542.74 777.432 543.764 777.432C544.788 777.432 545.631 777.155 546.292 776.6C546.954 776.045 547.284 775.384 547.284 774.616C547.284 774.168 547.178 773.795 546.964 773.496C546.772 773.176 546.41 772.877 545.876 772.6C545.364 772.323 544.607 772.035 543.604 771.736C541.876 771.203 540.628 770.584 539.86 769.88C539.092 769.176 538.708 768.248 538.708 767.096C538.708 765.944 539.178 765.016 540.116 764.312C541.076 763.587 542.442 763.224 544.212 763.224C545.812 763.224 547.039 763.555 547.892 764.216C548.767 764.856 549.204 765.741 549.204 766.872C549.204 767.384 549.119 767.779 548.948 768.056C548.778 768.312 548.532 768.44 548.212 768.44C547.935 768.44 547.7 768.355 547.508 768.184C547.316 767.992 547.22 767.779 547.22 767.544C547.22 767.437 547.231 767.32 547.252 767.192C547.295 767.064 547.316 766.947 547.316 766.84C547.316 766.264 547.06 765.816 546.548 765.496C546.036 765.155 545.258 764.984 544.212 764.984C543.06 764.984 542.164 765.176 541.524 765.56C540.906 765.923 540.596 766.445 540.596 767.128C540.596 767.789 540.863 768.312 541.396 768.696C541.951 769.08 542.9 769.496 544.244 769.944C545.524 770.371 546.506 770.776 547.188 771.16C547.892 771.544 548.394 772.003 548.692 772.536C549.012 773.048 549.172 773.709 549.172 774.52C549.172 775.309 548.938 776.067 548.468 776.792C548.02 777.517 547.38 778.115 546.548 778.584C545.716 779.032 544.756 779.256 543.668 779.256ZM554.133 760.696C553.855 760.696 553.621 760.6 553.429 760.408C553.237 760.216 553.141 759.981 553.141 759.704L553.173 758.392C553.173 758.136 553.279 757.912 553.493 757.72C553.706 757.528 553.941 757.432 554.197 757.432C554.453 757.432 554.677 757.539 554.869 757.752C555.061 757.944 555.157 758.168 555.157 758.424L555.125 759.736C555.125 760.013 555.018 760.248 554.805 760.44C554.613 760.611 554.389 760.696 554.133 760.696ZM553.941 779.192C553.663 779.192 553.418 779.096 553.205 778.904C552.991 778.691 552.885 778.445 552.885 778.168L553.077 764.28C553.077 764.003 553.183 763.757 553.397 763.544C553.61 763.331 553.855 763.224 554.133 763.224C554.41 763.224 554.645 763.331 554.837 763.544C555.05 763.736 555.157 763.981 555.157 764.28L554.965 778.168C554.965 778.445 554.858 778.691 554.645 778.904C554.453 779.096 554.218 779.192 553.941 779.192ZM565.607 779.192C564.391 779.192 563.281 778.872 562.279 778.232C561.297 777.571 560.519 776.685 559.943 775.576C559.388 774.445 559.111 773.197 559.111 771.832C559.111 770.381 559.431 768.995 560.071 767.672C560.732 766.349 561.639 765.283 562.791 764.472C563.943 763.64 565.212 763.224 566.599 763.224C567.793 763.224 568.881 763.555 569.863 764.216C570.865 764.856 571.644 765.741 572.199 766.872C572.775 767.981 573.063 769.208 573.063 770.552C573.063 772.088 572.721 773.517 572.039 774.84C571.356 776.163 570.439 777.219 569.287 778.008C568.156 778.797 566.929 779.192 565.607 779.192ZM565.735 777.368C566.652 777.368 567.516 777.059 568.327 776.44C569.137 775.821 569.788 775 570.279 773.976C570.769 772.952 571.015 771.864 571.015 770.712C571.015 769.709 570.812 768.781 570.407 767.928C570.001 767.053 569.447 766.36 568.743 765.848C568.06 765.315 567.292 765.048 566.439 765.048C565.5 765.048 564.625 765.368 563.815 766.008C563.025 766.627 562.385 767.459 561.895 768.504C561.425 769.528 561.191 770.616 561.191 771.768C561.191 772.877 561.393 773.859 561.799 774.712C562.225 775.544 562.791 776.195 563.495 776.664C564.199 777.133 564.945 777.368 565.735 777.368ZM578.096 779.192C577.819 779.192 577.574 779.096 577.36 778.904C577.168 778.712 577.072 778.499 577.072 778.264V764.152C577.072 763.875 577.168 763.651 577.36 763.48C577.574 763.288 577.819 763.192 578.096 763.192C578.374 763.192 578.608 763.288 578.8 763.48C578.992 763.651 579.088 763.875 579.088 764.152V769.208C579.707 767.288 580.56 765.816 581.648 764.792C582.758 763.747 584.006 763.224 585.392 763.224C586.566 763.224 587.494 763.523 588.176 764.12C588.859 764.717 589.35 765.667 589.648 766.968C589.947 768.248 590.096 769.976 590.096 772.152C590.096 774.285 590.086 775.683 590.064 776.344V778.168C590.064 778.445 589.968 778.691 589.776 778.904C589.606 779.096 589.382 779.192 589.104 779.192C588.848 779.192 588.624 779.096 588.432 778.904C588.24 778.691 588.144 778.456 588.144 778.2V776.408C588.123 775.747 588.112 774.371 588.112 772.28C588.112 770.296 588.006 768.792 587.792 767.768C587.6 766.744 587.291 766.051 586.864 765.688C586.459 765.304 585.872 765.112 585.104 765.112C584.379 765.112 583.664 765.379 582.96 765.912C582.256 766.445 581.638 767.203 581.104 768.184C580.4 769.464 579.888 770.669 579.568 771.8C579.27 772.931 579.11 774.093 579.088 775.288L579.056 778.136C579.056 778.435 578.96 778.691 578.768 778.904C578.598 779.096 578.374 779.192 578.096 779.192Z" fill="#424346"/>
<rect opacity="0.3" x="979.045" y="743" width="52" height="52" rx="12" fill="#D7B030"/>
<path d="M1072.32 779.192C1072.02 779.192 1071.78 779.096 1071.61 778.904C1071.44 778.712 1071.36 778.509 1071.36 778.296C1071.36 778.04 1071.4 777.773 1071.48 777.496L1075.71 758.2C1075.75 757.944 1075.86 757.752 1076.03 757.624C1076.22 757.475 1076.44 757.4 1076.7 757.4C1076.94 757.4 1077.14 757.464 1077.31 757.592C1077.48 757.72 1077.6 757.88 1077.66 758.072L1083 775.032L1089.15 758.04C1089.23 757.848 1089.36 757.699 1089.53 757.592C1089.72 757.464 1089.94 757.4 1090.17 757.4C1090.39 757.4 1090.58 757.475 1090.75 757.624C1090.92 757.773 1091.03 757.965 1091.07 758.2L1095.36 777.4C1095.46 777.763 1095.52 778.061 1095.52 778.296C1095.52 778.531 1095.42 778.744 1095.23 778.936C1095.04 779.107 1094.8 779.192 1094.52 779.192C1094.27 779.192 1094.04 779.128 1093.85 779C1093.68 778.851 1093.58 778.648 1093.53 778.392L1089.88 762.008L1083.9 778.552C1083.84 778.744 1083.71 778.893 1083.52 779C1083.35 779.128 1083.15 779.192 1082.94 779.192C1082.73 779.192 1082.54 779.128 1082.36 779C1082.19 778.872 1082.08 778.701 1082.01 778.488L1076.86 762.296L1073.31 778.392C1073.27 778.648 1073.15 778.851 1072.96 779C1072.79 779.128 1072.57 779.192 1072.32 779.192ZM1104.83 779.192C1103.61 779.192 1102.5 778.872 1101.5 778.232C1100.52 777.571 1099.74 776.685 1099.16 775.576C1098.61 774.445 1098.33 773.197 1098.33 771.832C1098.33 770.381 1098.65 768.995 1099.29 767.672C1099.95 766.349 1100.86 765.283 1102.01 764.472C1103.16 763.64 1104.43 763.224 1105.82 763.224C1107.01 763.224 1108.1 763.555 1109.08 764.216C1110.08 764.856 1110.86 765.741 1111.42 766.872C1111.99 767.981 1112.28 769.208 1112.28 770.552C1112.28 772.088 1111.94 773.517 1111.26 774.84C1110.57 776.163 1109.66 777.219 1108.51 778.008C1107.37 778.797 1106.15 779.192 1104.83 779.192ZM1104.95 777.368C1105.87 777.368 1106.73 777.059 1107.55 776.44C1108.36 775.821 1109.01 775 1109.5 773.976C1109.99 772.952 1110.23 771.864 1110.23 770.712C1110.23 769.709 1110.03 768.781 1109.63 767.928C1109.22 767.053 1108.67 766.36 1107.96 765.848C1107.28 765.315 1106.51 765.048 1105.66 765.048C1104.72 765.048 1103.84 765.368 1103.03 766.008C1102.24 766.627 1101.6 767.459 1101.11 768.504C1100.64 769.528 1100.41 770.616 1100.41 771.768C1100.41 772.877 1100.61 773.859 1101.02 774.712C1101.44 775.544 1102.01 776.195 1102.71 776.664C1103.42 777.133 1104.16 777.368 1104.95 777.368ZM1117.31 779.192C1117.04 779.192 1116.79 779.096 1116.58 778.904C1116.39 778.712 1116.29 778.499 1116.29 778.264V764.152C1116.29 763.875 1116.39 763.651 1116.58 763.48C1116.79 763.288 1117.04 763.192 1117.31 763.192C1117.59 763.192 1117.83 763.288 1118.02 763.48C1118.21 763.651 1118.31 763.875 1118.31 764.152V769.208C1118.93 767.288 1119.78 765.816 1120.87 764.792C1121.98 763.747 1123.22 763.224 1124.61 763.224C1125.78 763.224 1126.71 763.523 1127.39 764.12C1128.08 764.717 1128.57 765.667 1128.87 766.968C1129.17 768.248 1129.31 769.976 1129.31 772.152C1129.31 774.285 1129.3 775.683 1129.28 776.344V778.168C1129.28 778.445 1129.19 778.691 1128.99 778.904C1128.82 779.096 1128.6 779.192 1128.32 779.192C1128.07 779.192 1127.84 779.096 1127.65 778.904C1127.46 778.691 1127.36 778.456 1127.36 778.2V776.408C1127.34 775.747 1127.33 774.371 1127.33 772.28C1127.33 770.296 1127.22 768.792 1127.01 767.768C1126.82 766.744 1126.51 766.051 1126.08 765.688C1125.68 765.304 1125.09 765.112 1124.32 765.112C1123.6 765.112 1122.88 765.379 1122.18 765.912C1121.47 766.445 1120.86 767.203 1120.32 768.184C1119.62 769.464 1119.11 770.669 1118.79 771.8C1118.49 772.931 1118.33 774.093 1118.31 775.288L1118.27 778.136C1118.27 778.435 1118.18 778.691 1117.99 778.904C1117.82 779.096 1117.59 779.192 1117.31 779.192ZM1139.45 779.192C1138.23 779.192 1137.13 778.872 1136.12 778.232C1135.14 777.571 1134.36 776.685 1133.79 775.576C1133.23 774.445 1132.95 773.197 1132.95 771.832C1132.95 770.381 1133.27 768.995 1133.91 767.672C1134.58 766.349 1135.48 765.283 1136.63 764.472C1137.79 763.64 1139.06 763.224 1140.44 763.224C1141.64 763.224 1142.73 763.555 1143.71 764.216C1144.71 764.856 1145.49 765.741 1146.04 766.872C1146.62 767.981 1146.91 769.208 1146.91 770.552C1146.91 772.088 1146.57 773.517 1145.88 774.84C1145.2 776.163 1144.28 777.219 1143.13 778.008C1142 778.797 1140.77 779.192 1139.45 779.192ZM1139.58 777.368C1140.5 777.368 1141.36 777.059 1142.17 776.44C1142.98 775.821 1143.63 775 1144.12 773.976C1144.61 772.952 1144.86 771.864 1144.86 770.712C1144.86 769.709 1144.66 768.781 1144.25 767.928C1143.85 767.053 1143.29 766.36 1142.59 765.848C1141.9 765.315 1141.14 765.048 1140.28 765.048C1139.34 765.048 1138.47 765.368 1137.66 766.008C1136.87 766.627 1136.23 767.459 1135.74 768.504C1135.27 769.528 1135.03 770.616 1135.03 771.768C1135.03 772.877 1135.24 773.859 1135.64 774.712C1136.07 775.544 1136.63 776.195 1137.34 776.664C1138.04 777.133 1138.79 777.368 1139.58 777.368ZM1156.87 779.192C1155.63 779.192 1154.47 778.893 1153.38 778.296C1152.31 777.677 1151.46 776.835 1150.82 775.768C1150.2 774.701 1149.89 773.528 1149.89 772.248C1149.89 770.797 1150.22 769.379 1150.88 767.992C1151.57 766.584 1152.46 765.443 1153.57 764.568C1154.68 763.672 1155.83 763.224 1157.03 763.224C1158.14 763.224 1159.04 763.405 1159.75 763.768C1160.47 764.131 1161.17 764.696 1161.83 765.464C1162 765.635 1162.08 765.859 1162.08 766.136C1162.08 766.413 1161.99 766.648 1161.8 766.84C1161.63 767.032 1161.4 767.128 1161.12 767.128C1160.83 767.128 1160.58 767.011 1160.39 766.776C1159.92 766.221 1159.44 765.805 1158.95 765.528C1158.46 765.229 1157.84 765.08 1157.09 765.08C1156.24 765.08 1155.41 765.421 1154.6 766.104C1153.79 766.787 1153.12 767.683 1152.61 768.792C1152.1 769.88 1151.84 771.011 1151.84 772.184C1151.84 773.251 1152.09 774.179 1152.58 774.968C1153.09 775.736 1153.73 776.323 1154.5 776.728C1155.29 777.133 1156.08 777.336 1156.87 777.336C1158.7 777.336 1160.13 776.6 1161.16 775.128C1161.43 774.744 1161.73 774.552 1162.05 774.552C1162.33 774.552 1162.56 774.648 1162.76 774.84C1162.95 775.032 1163.04 775.256 1163.04 775.512C1163.04 775.725 1162.94 775.971 1162.72 776.248C1162.17 777.059 1161.37 777.752 1160.32 778.328C1159.28 778.904 1158.13 779.192 1156.87 779.192ZM1170.71 779.288C1169.51 779.288 1168.56 779.021 1167.86 778.488C1167.17 777.955 1166.67 777.048 1166.35 775.768C1166.03 774.488 1165.87 772.707 1165.87 770.424C1165.87 767.971 1166 765.955 1166.26 764.376C1166.32 763.949 1166.43 763.651 1166.58 763.48C1166.75 763.288 1166.98 763.192 1167.28 763.192C1167.54 763.192 1167.75 763.277 1167.92 763.448C1168.11 763.619 1168.21 763.853 1168.21 764.152C1168.21 764.472 1168.18 764.888 1168.11 765.4C1167.92 766.936 1167.83 768.867 1167.83 771.192C1167.83 773.432 1168.05 775.043 1168.5 776.024C1168.95 777.005 1169.69 777.496 1170.74 777.496C1171.7 777.496 1172.66 777.251 1173.62 776.76C1174.6 776.248 1175.29 775.757 1175.7 775.288C1175.95 774.989 1176.08 774.509 1176.08 773.848L1176.21 764.088C1176.21 763.832 1176.31 763.619 1176.5 763.448C1176.69 763.277 1176.91 763.192 1177.17 763.192C1177.43 763.192 1177.65 763.277 1177.84 763.448C1178.03 763.619 1178.13 763.832 1178.13 764.088V778.2C1178.13 778.456 1178.02 778.691 1177.81 778.904C1177.6 779.096 1177.35 779.192 1177.07 779.192C1176.73 779.192 1176.45 779.085 1176.24 778.872C1176.05 778.659 1175.95 778.392 1175.95 778.072V776.856C1175.48 777.475 1174.76 778.04 1173.78 778.552C1172.82 779.043 1171.79 779.288 1170.71 779.288ZM1183.72 779.192C1183.47 779.192 1183.23 779.107 1183.02 778.936C1182.8 778.744 1182.7 778.531 1182.7 778.296V758.168C1182.7 757.891 1182.79 757.667 1182.99 757.496C1183.18 757.304 1183.42 757.208 1183.72 757.208C1183.98 757.208 1184.2 757.304 1184.39 757.496C1184.61 757.688 1184.71 757.912 1184.71 758.168V778.296C1184.71 778.531 1184.61 778.744 1184.39 778.936C1184.2 779.107 1183.98 779.192 1183.72 779.192ZM1200.23 779.448C1199.91 779.448 1199.66 779.341 1199.49 779.128C1199.32 778.936 1199.23 778.691 1199.23 778.392V777.496C1198.66 778.008 1197.96 778.424 1197.15 778.744C1196.34 779.043 1195.53 779.192 1194.72 779.192C1193.57 779.192 1192.53 778.904 1191.62 778.328C1190.7 777.752 1189.97 776.941 1189.44 775.896C1188.93 774.829 1188.67 773.624 1188.67 772.28C1188.67 770.829 1188.97 769.411 1189.57 768.024C1190.19 766.616 1191.07 765.464 1192.23 764.568C1193.4 763.672 1194.77 763.224 1196.35 763.224C1197.33 763.224 1198.2 763.352 1198.95 763.608C1199.69 763.864 1200.45 764.173 1201.22 764.536V778.392C1201.22 778.691 1201.12 778.936 1200.93 779.128C1200.74 779.341 1200.5 779.448 1200.23 779.448ZM1194.72 777.304C1195.55 777.304 1196.39 777.112 1197.22 776.728C1198.05 776.323 1198.69 775.896 1199.14 775.448L1199.27 765.752C1198.92 765.603 1198.48 765.464 1197.92 765.336C1197.39 765.187 1196.89 765.112 1196.42 765.112C1195.37 765.112 1194.41 765.421 1193.54 766.04C1192.66 766.659 1191.97 767.512 1191.46 768.6C1190.97 769.667 1190.72 770.872 1190.72 772.216C1190.72 773.773 1191.09 775.011 1191.84 775.928C1192.59 776.845 1193.55 777.304 1194.72 777.304ZM1207.22 779.192C1206.97 779.192 1206.73 779.096 1206.52 778.904C1206.3 778.712 1206.2 778.499 1206.2 778.264V764.184C1206.2 763.907 1206.29 763.683 1206.49 763.512C1206.7 763.32 1206.94 763.224 1207.22 763.224C1207.52 763.224 1207.77 763.32 1207.96 763.512C1208.15 763.683 1208.25 763.907 1208.25 764.184V766.904C1208.84 765.859 1209.58 764.973 1210.45 764.248C1211.35 763.501 1212.39 763.128 1213.59 763.128C1214.53 763.128 1215.2 763.395 1215.61 763.928C1216.03 764.44 1216.25 765.059 1216.25 765.784V766.808C1216.25 767.085 1216.15 767.32 1215.96 767.512C1215.77 767.683 1215.53 767.768 1215.25 767.768C1214.93 767.768 1214.7 767.672 1214.55 767.48C1214.4 767.288 1214.33 767.053 1214.33 766.776V766.04C1214.33 765.421 1213.96 765.112 1213.24 765.112C1211.98 765.112 1210.68 766.008 1209.33 767.8C1209.01 768.227 1208.75 768.76 1208.53 769.4C1208.34 770.04 1208.25 770.637 1208.25 771.192L1208.21 778.264C1208.21 778.499 1208.11 778.712 1207.89 778.904C1207.7 779.096 1207.48 779.192 1207.22 779.192ZM1233.64 779.224C1233.21 779.224 1232.9 778.989 1232.71 778.52L1227.01 764.568C1226.97 764.397 1226.95 764.28 1226.95 764.216C1226.95 763.939 1227.04 763.704 1227.24 763.512C1227.45 763.32 1227.7 763.224 1228 763.224C1228.41 763.224 1228.72 763.448 1228.93 763.896L1233.64 775.768L1238.37 763.8C1238.46 763.629 1238.57 763.491 1238.72 763.384C1238.89 763.256 1239.09 763.192 1239.3 763.192C1239.58 763.192 1239.81 763.299 1240 763.512C1240.22 763.704 1240.32 763.928 1240.32 764.184C1240.32 764.312 1240.28 764.461 1240.2 764.632L1234.56 778.584C1234.37 779.011 1234.06 779.224 1233.64 779.224ZM1244.23 760.696C1243.95 760.696 1243.71 760.6 1243.52 760.408C1243.33 760.216 1243.23 759.981 1243.23 759.704L1243.27 758.392C1243.27 758.136 1243.37 757.912 1243.59 757.72C1243.8 757.528 1244.03 757.432 1244.29 757.432C1244.55 757.432 1244.77 757.539 1244.96 757.752C1245.15 757.944 1245.25 758.168 1245.25 758.424L1245.22 759.736C1245.22 760.013 1245.11 760.248 1244.9 760.44C1244.71 760.611 1244.48 760.696 1244.23 760.696ZM1244.03 779.192C1243.76 779.192 1243.51 779.096 1243.3 778.904C1243.09 778.691 1242.98 778.445 1242.98 778.168L1243.17 764.28C1243.17 764.003 1243.28 763.757 1243.49 763.544C1243.7 763.331 1243.95 763.224 1244.23 763.224C1244.5 763.224 1244.74 763.331 1244.93 763.544C1245.14 763.736 1245.25 763.981 1245.25 764.28L1245.06 778.168C1245.06 778.445 1244.95 778.691 1244.74 778.904C1244.55 779.096 1244.31 779.192 1244.03 779.192ZM1254.32 779.256C1253.11 779.256 1252.05 779.011 1251.16 778.52C1250.28 778.008 1249.61 777.421 1249.14 776.76C1248.69 776.077 1248.47 775.501 1248.47 775.032C1248.47 774.755 1248.55 774.531 1248.72 774.36C1248.92 774.168 1249.15 774.072 1249.43 774.072C1249.9 774.072 1250.2 774.296 1250.32 774.744C1250.62 775.597 1251.12 776.259 1251.83 776.728C1252.53 777.197 1253.4 777.432 1254.42 777.432C1255.44 777.432 1256.29 777.155 1256.95 776.6C1257.61 776.045 1257.94 775.384 1257.94 774.616C1257.94 774.168 1257.83 773.795 1257.62 773.496C1257.43 773.176 1257.07 772.877 1256.53 772.6C1256.02 772.323 1255.26 772.035 1254.26 771.736C1252.53 771.203 1251.28 770.584 1250.52 769.88C1249.75 769.176 1249.36 768.248 1249.36 767.096C1249.36 765.944 1249.83 765.016 1250.77 764.312C1251.73 763.587 1253.1 763.224 1254.87 763.224C1256.47 763.224 1257.7 763.555 1258.55 764.216C1259.42 764.856 1259.86 765.741 1259.86 766.872C1259.86 767.384 1259.78 767.779 1259.6 768.056C1259.43 768.312 1259.19 768.44 1258.87 768.44C1258.59 768.44 1258.36 768.355 1258.16 768.184C1257.97 767.992 1257.88 767.779 1257.88 767.544C1257.88 767.437 1257.89 767.32 1257.91 767.192C1257.95 767.064 1257.97 766.947 1257.97 766.84C1257.97 766.264 1257.72 765.816 1257.2 765.496C1256.69 765.155 1255.91 764.984 1254.87 764.984C1253.72 764.984 1252.82 765.176 1252.18 765.56C1251.56 765.923 1251.25 766.445 1251.25 767.128C1251.25 767.789 1251.52 768.312 1252.05 768.696C1252.61 769.08 1253.56 769.496 1254.9 769.944C1256.18 770.371 1257.16 770.776 1257.84 771.16C1258.55 771.544 1259.05 772.003 1259.35 772.536C1259.67 773.048 1259.83 773.709 1259.83 774.52C1259.83 775.309 1259.59 776.067 1259.12 776.792C1258.68 777.517 1258.04 778.115 1257.2 778.584C1256.37 779.032 1255.41 779.256 1254.32 779.256ZM1264.79 760.696C1264.51 760.696 1264.28 760.6 1264.08 760.408C1263.89 760.216 1263.8 759.981 1263.8 759.704L1263.83 758.392C1263.83 758.136 1263.94 757.912 1264.15 757.72C1264.36 757.528 1264.6 757.432 1264.85 757.432C1265.11 757.432 1265.33 757.539 1265.52 757.752C1265.72 757.944 1265.81 758.168 1265.81 758.424L1265.78 759.736C1265.78 760.013 1265.67 760.248 1265.46 760.44C1265.27 760.611 1265.04 760.696 1264.79 760.696ZM1264.6 779.192C1264.32 779.192 1264.07 779.096 1263.86 778.904C1263.65 778.691 1263.54 778.445 1263.54 778.168L1263.73 764.28C1263.73 764.003 1263.84 763.757 1264.05 763.544C1264.27 763.331 1264.51 763.224 1264.79 763.224C1265.07 763.224 1265.3 763.331 1265.49 763.544C1265.71 763.736 1265.81 763.981 1265.81 764.28L1265.62 778.168C1265.62 778.445 1265.51 778.691 1265.3 778.904C1265.11 779.096 1264.87 779.192 1264.6 779.192ZM1276.26 779.192C1275.05 779.192 1273.94 778.872 1272.93 778.232C1271.95 777.571 1271.17 776.685 1270.6 775.576C1270.04 774.445 1269.77 773.197 1269.77 771.832C1269.77 770.381 1270.09 768.995 1270.73 767.672C1271.39 766.349 1272.29 765.283 1273.45 764.472C1274.6 763.64 1275.87 763.224 1277.25 763.224C1278.45 763.224 1279.54 763.555 1280.52 764.216C1281.52 764.856 1282.3 765.741 1282.85 766.872C1283.43 767.981 1283.72 769.208 1283.72 770.552C1283.72 772.088 1283.38 773.517 1282.69 774.84C1282.01 776.163 1281.09 777.219 1279.94 778.008C1278.81 778.797 1277.59 779.192 1276.26 779.192ZM1276.39 777.368C1277.31 777.368 1278.17 777.059 1278.98 776.44C1279.79 775.821 1280.44 775 1280.93 773.976C1281.43 772.952 1281.67 771.864 1281.67 770.712C1281.67 769.709 1281.47 768.781 1281.06 767.928C1280.66 767.053 1280.1 766.36 1279.4 765.848C1278.72 765.315 1277.95 765.048 1277.09 765.048C1276.16 765.048 1275.28 765.368 1274.47 766.008C1273.68 766.627 1273.04 767.459 1272.55 768.504C1272.08 769.528 1271.85 770.616 1271.85 771.768C1271.85 772.877 1272.05 773.859 1272.45 774.712C1272.88 775.544 1273.45 776.195 1274.15 776.664C1274.85 777.133 1275.6 777.368 1276.39 777.368ZM1288.75 779.192C1288.48 779.192 1288.23 779.096 1288.02 778.904C1287.82 778.712 1287.73 778.499 1287.73 778.264V764.152C1287.73 763.875 1287.82 763.651 1288.02 763.48C1288.23 763.288 1288.48 763.192 1288.75 763.192C1289.03 763.192 1289.26 763.288 1289.46 763.48C1289.65 763.651 1289.74 763.875 1289.74 764.152V769.208C1290.36 767.288 1291.22 765.816 1292.3 764.792C1293.41 763.747 1294.66 763.224 1296.05 763.224C1297.22 763.224 1298.15 763.523 1298.83 764.12C1299.52 764.717 1300.01 765.667 1300.3 766.968C1300.6 768.248 1300.75 769.976 1300.75 772.152C1300.75 774.285 1300.74 775.683 1300.72 776.344V778.168C1300.72 778.445 1300.62 778.691 1300.43 778.904C1300.26 779.096 1300.04 779.192 1299.76 779.192C1299.5 779.192 1299.28 779.096 1299.09 778.904C1298.9 778.691 1298.8 778.456 1298.8 778.2V776.408C1298.78 775.747 1298.77 774.371 1298.77 772.28C1298.77 770.296 1298.66 768.792 1298.45 767.768C1298.26 766.744 1297.95 766.051 1297.52 765.688C1297.12 765.304 1296.53 765.112 1295.76 765.112C1295.04 765.112 1294.32 765.379 1293.62 765.912C1292.91 766.445 1292.29 767.203 1291.76 768.184C1291.06 769.464 1290.54 770.669 1290.22 771.8C1289.93 772.931 1289.77 774.093 1289.74 775.288L1289.71 778.136C1289.71 778.435 1289.62 778.691 1289.42 778.904C1289.25 779.096 1289.03 779.192 1288.75 779.192Z" fill="#424346"/>
</svg>
