<svg width="1599" height="885" viewBox="0 0 1599 885" fill="none" xmlns="http://www.w3.org/2000/svg">
<path d="M174.8 515.946C174.438 515.946 174.118 515.821 173.84 515.571C173.59 515.292 173.464 514.972 173.464 514.611V489.358C173.464 488.83 173.534 488.44 173.673 488.19C173.84 487.939 174.146 487.772 174.591 487.689C175.037 487.605 175.76 487.564 176.762 487.564H177.972C182.675 487.564 186.292 488.315 188.824 489.818C191.357 491.32 192.623 493.449 192.623 496.204C192.623 499.877 190.104 502.604 185.068 504.384C186.376 505.219 187.809 506.458 189.367 508.099C190.953 509.713 192.33 511.689 193.499 514.026C193.61 514.165 193.666 514.36 193.666 514.611C193.666 514.972 193.541 515.292 193.29 515.571C193.04 515.821 192.72 515.946 192.33 515.946C191.857 515.946 191.468 515.696 191.162 515.195C187.266 508.767 183.523 505.553 179.934 505.553C179.016 505.553 177.736 505.678 176.094 505.929V514.611C176.094 514.972 175.969 515.292 175.718 515.571C175.468 515.821 175.162 515.946 174.8 515.946ZM176.094 503.341C178.264 503.285 180.407 503.007 182.522 502.506C184.664 501.978 186.445 501.184 187.864 500.127C189.283 499.07 189.993 497.762 189.993 496.204C189.993 494.228 188.936 492.725 186.821 491.696C184.706 490.666 181.715 490.151 177.847 490.151C177.068 490.151 176.483 490.165 176.094 490.193V503.341ZM211.363 516.28C210.945 516.28 210.625 516.141 210.403 515.863C210.18 515.612 210.069 515.292 210.069 514.903V513.734C209.318 514.402 208.413 514.944 207.356 515.362C206.298 515.751 205.241 515.946 204.184 515.946C202.681 515.946 201.332 515.571 200.135 514.819C198.938 514.068 197.992 513.011 197.297 511.647C196.629 510.256 196.295 508.684 196.295 506.931C196.295 505.038 196.685 503.188 197.464 501.379C198.271 499.543 199.425 498.04 200.928 496.871C202.458 495.703 204.253 495.118 206.312 495.118C207.592 495.118 208.719 495.285 209.693 495.619C210.667 495.953 211.655 496.357 212.657 496.83V514.903C212.657 515.292 212.532 515.612 212.281 515.863C212.031 516.141 211.725 516.28 211.363 516.28ZM204.184 513.484C205.269 513.484 206.354 513.233 207.439 512.732C208.525 512.204 209.359 511.647 209.944 511.063L210.111 498.416C209.665 498.221 209.081 498.04 208.358 497.873C207.662 497.678 207.008 497.581 206.396 497.581C205.032 497.581 203.78 497.984 202.639 498.791C201.498 499.598 200.594 500.711 199.926 502.131C199.286 503.522 198.966 505.094 198.966 506.847C198.966 508.878 199.453 510.492 200.427 511.689C201.401 512.885 202.653 513.484 204.184 513.484ZM220.446 515.946C220.112 515.946 219.806 515.835 219.528 515.612C219.278 515.362 219.152 515.07 219.152 514.736V488.44C219.152 488.106 219.278 487.828 219.528 487.605C219.806 487.383 220.126 487.271 220.488 487.271C220.822 487.271 221.114 487.383 221.365 487.605C221.615 487.828 221.74 488.106 221.74 488.44V498.666C222.631 497.637 223.716 496.844 224.996 496.287C226.276 495.731 227.612 495.452 229.003 495.452C231.201 495.452 232.968 496.287 234.304 497.957C235.639 499.598 236.307 501.824 236.307 504.635C236.307 507.946 235.542 510.618 234.012 512.649C232.509 514.652 230.241 515.654 227.208 515.654C226.262 515.654 225.288 515.543 224.286 515.32C223.285 515.07 222.422 514.791 221.698 514.485V514.819C221.698 515.098 221.573 515.362 221.323 515.612C221.072 515.835 220.78 515.946 220.446 515.946ZM226.874 513.15C231.493 513.15 233.803 510.311 233.803 504.635C233.803 502.576 233.358 500.976 232.467 499.835C231.605 498.666 230.436 498.082 228.961 498.082C227.625 498.082 226.401 498.332 225.288 498.833C224.203 499.334 223.34 500.016 222.7 500.878C222.06 501.741 221.74 502.687 221.74 503.717V512.106C222.269 512.329 223.006 512.565 223.952 512.816C224.926 513.038 225.9 513.15 226.874 513.15ZM242.783 515.946C242.449 515.946 242.143 515.835 241.865 515.612C241.615 515.362 241.489 515.07 241.489 514.736V488.44C241.489 488.106 241.615 487.828 241.865 487.605C242.143 487.383 242.463 487.271 242.825 487.271C243.159 487.271 243.451 487.383 243.702 487.605C243.952 487.828 244.077 488.106 244.077 488.44V498.666C244.968 497.637 246.053 496.844 247.333 496.287C248.613 495.731 249.948 495.452 251.34 495.452C253.538 495.452 255.305 496.287 256.641 497.957C257.976 499.598 258.644 501.824 258.644 504.635C258.644 507.946 257.879 510.618 256.348 512.649C254.846 514.652 252.578 515.654 249.545 515.654C248.599 515.654 247.625 515.543 246.623 515.32C245.622 515.07 244.759 514.791 244.035 514.485V514.819C244.035 515.098 243.91 515.362 243.66 515.612C243.409 515.835 243.117 515.946 242.783 515.946ZM249.211 513.15C253.83 513.15 256.14 510.311 256.14 504.635C256.14 502.576 255.695 500.976 254.804 499.835C253.942 498.666 252.773 498.082 251.298 498.082C249.962 498.082 248.738 498.332 247.625 498.833C246.54 499.334 245.677 500.016 245.037 500.878C244.397 501.741 244.077 502.687 244.077 503.717V512.106C244.606 512.329 245.343 512.565 246.289 512.816C247.263 513.038 248.237 513.15 249.211 513.15ZM265.454 491.821C265.092 491.821 264.786 491.696 264.536 491.445C264.285 491.195 264.16 490.889 264.16 490.527L264.202 488.816C264.202 488.482 264.341 488.19 264.619 487.939C264.898 487.689 265.204 487.564 265.538 487.564C265.872 487.564 266.164 487.703 266.414 487.981C266.665 488.231 266.79 488.524 266.79 488.858L266.748 490.569C266.748 490.931 266.609 491.237 266.331 491.487C266.08 491.71 265.788 491.821 265.454 491.821ZM265.204 515.946C264.842 515.946 264.522 515.821 264.244 515.571C263.965 515.292 263.826 514.972 263.826 514.611L264.077 496.496C264.077 496.134 264.216 495.814 264.494 495.536C264.772 495.258 265.092 495.118 265.454 495.118C265.816 495.118 266.122 495.258 266.372 495.536C266.651 495.786 266.79 496.106 266.79 496.496L266.539 514.611C266.539 514.972 266.4 515.292 266.122 515.571C265.872 515.821 265.565 515.946 265.204 515.946ZM275.662 515.988C275.3 515.988 274.98 515.863 274.702 515.612C274.452 515.362 274.326 515.07 274.326 514.736V497.706H269.693C269.332 497.706 269.025 497.581 268.775 497.331C268.525 497.052 268.399 496.732 268.399 496.371C268.399 495.981 268.538 495.675 268.817 495.452C269.095 495.202 269.415 495.077 269.777 495.077H274.326V489.358C274.326 488.997 274.452 488.691 274.702 488.44C274.98 488.162 275.3 488.023 275.662 488.023C276.052 488.023 276.358 488.162 276.58 488.44C276.831 488.691 276.956 488.997 276.956 489.358V495.077H281.631C282.02 495.077 282.34 495.202 282.591 495.452C282.841 495.703 282.966 496.009 282.966 496.371C282.966 496.732 282.827 497.052 282.549 497.331C282.298 497.581 281.992 497.706 281.631 497.706H276.956V514.736C276.956 515.07 276.817 515.362 276.538 515.612C276.288 515.863 275.996 515.988 275.662 515.988Z" fill="#424346"/>
<path opacity="0.53" d="M311.831 14.4509C262.426 -3.88148 208.244 -4.79811 158.247 11.8527L231.348 231.348L311.831 14.4509Z" fill="#548765"/>
<path opacity="0.3" d="M312.34 14.6407C363.429 33.7348 406.129 70.2647 432.903 117.781C459.676 165.298 468.801 220.746 458.666 274.336C448.532 327.927 419.79 376.213 377.514 410.672C335.238 445.131 282.147 463.546 227.614 462.666C173.081 461.785 120.612 441.667 79.4704 405.862C38.3286 370.057 11.1597 320.868 2.75984 266.978C-5.64 213.089 5.26943 157.964 33.5622 111.336C61.855 64.7082 105.712 29.5754 157.39 12.1399L231.347 231.348L312.34 14.6407Z" fill="#D7B030"/>
<path d="M215.075 278.585C212.223 285.739 209.086 292.726 205.165 299.428C202.194 304.466 200.483 310.146 199.841 316.064C199.461 319.534 198.867 322.98 198.391 326.45C198.035 329.088 198.795 331.322 201.362 332.344C204.024 333.389 205.949 332.154 207.28 329.801" stroke="#424346" stroke-width="1.78244" stroke-linecap="round" stroke-linejoin="round"/>
<path d="M223.963 283.767C228.906 285.216 233.849 285.668 239.482 283.339C240.409 287.498 241.93 291.372 241.977 295.269C242.096 301.9 243.403 308.103 245.827 314.187" stroke="#424346" stroke-width="1.78244" stroke-linecap="round" stroke-linejoin="round"/>
<path d="M212.46 295.65C213.886 292.94 215.312 290.255 216.714 287.545C217.142 287.712 217.546 287.878 217.974 288.044C216.12 300.688 212.246 312.785 207.279 324.573" stroke="#424346" stroke-width="1.78244" stroke-linecap="round" stroke-linejoin="round"/>
<path d="M240.646 237.043C234.657 229.913 225.222 231.577 219.803 240.322C216.072 246.359 213.481 252.657 212.436 259.644C212.388 259.929 211.96 260.143 211.723 260.381" stroke="#424346" stroke-width="1.78244" stroke-linecap="round" stroke-linejoin="round"/>
<path d="M247.705 278.585C250.913 285.501 253.932 292.536 257.402 299.333C261.061 306.487 262.891 314.092 263.604 321.982C263.866 324.81 263.652 327.662 263.652 330.514" stroke="#424346" stroke-width="1.78244" stroke-linecap="round" stroke-linejoin="round"/>
<path d="M264.389 341.636C270.687 335.338 274.18 327.59 275.82 319.011C276.319 316.373 276.747 313.402 276.034 310.93C275.559 309.243 273.063 308.102 271.4 306.819C270.901 306.415 270.188 306.32 269.475 306.035C266.005 307.413 266.646 310.17 266.908 313.117C267.478 319.272 267.882 325.475 268.001 331.654C268.049 333.864 267.098 336.098 266.599 338.332" stroke="#424346" stroke-width="1.78244" stroke-linecap="round" stroke-linejoin="round"/>
<path d="M223.225 283.409C220.777 289.232 220.397 295.482 220.017 301.59C219.518 309.671 215.43 316.206 212.055 323.075C211.152 324.905 209.869 326.544 208.752 328.279" stroke="#424346" stroke-width="1.78244" stroke-linecap="round" stroke-linejoin="round"/>
<path d="M210.605 271.17C203.975 280.724 200.79 291.704 197.582 302.683C195.039 311.31 194.397 320.151 193.969 329.04C193.85 331.369 194.421 333.745 194.658 336.074" stroke="#424346" stroke-width="1.78244" stroke-linecap="round" stroke-linejoin="round"/>
<path d="M195.421 306.772C191 305.465 186.413 308.578 186.556 313.07C186.865 321.863 189.028 330.015 195.017 336.835C196.656 338.689 197.773 340.995 199.128 343.11" stroke="#424346" stroke-width="1.78244" stroke-linecap="round" stroke-linejoin="round"/>
<path d="M256.236 277.849C259.088 285.881 261.94 293.914 264.768 301.971C265.315 303.563 265.766 305.179 266.265 306.795" stroke="#424346" stroke-width="1.78244" stroke-linecap="round" stroke-linejoin="round"/>
<path d="M237.7 347.555C235.965 343.776 232.4 342.849 229.239 344.014C224.914 345.606 222.68 349.646 222.18 354.233C221.468 360.84 224.153 363.858 230.285 363.882C240.076 363.882 242.857 359.604 239.197 350.145C239.078 349.813 239.197 349.409 239.197 349.028" stroke="#424346" stroke-width="1.78244" stroke-linecap="round" stroke-linejoin="round"/>
<path d="M208.017 262.259V257.387C207.09 257.506 205.664 257.316 204.738 257.886C203.193 258.837 200.911 260.192 200.793 261.522C200.103 268.747 200.84 275.925 203.953 282.65" stroke="#424346" stroke-width="1.78244" stroke-linecap="round" stroke-linejoin="round"/>
<path d="M210.251 299.358C207.898 305.299 205.521 311.217 203.216 317.158C201.766 320.89 201.695 323.48 202.836 326.047" stroke="#424346" stroke-width="1.78244" stroke-linecap="round" stroke-linejoin="round"/>
<path d="M242.143 238.517C248.393 247.833 251.34 258.171 251.364 269.294C251.364 273.762 248.655 277.16 245.446 280.012C244.329 281.01 242.761 281.533 241.406 282.27" stroke="#424346" stroke-width="1.78244" stroke-linecap="round" stroke-linejoin="round"/>
<path d="M254.383 258.171C255.238 257.933 256.118 257.506 256.973 257.482C257.662 257.482 258.352 257.933 259.041 258.029C263.295 260.976 262.392 265.515 262.059 269.65C261.75 273.762 260.681 277.825 259.896 281.889C259.825 282.198 259.207 282.388 258.827 282.65" stroke="#424346" stroke-width="1.78244" stroke-linecap="round" stroke-linejoin="round"/>
<path d="M206.543 350.525C211.486 352.759 216.43 354.97 221.373 357.204" stroke="#424346" stroke-width="1.78244" stroke-linecap="round" stroke-linejoin="round"/>
<path d="M218.782 257.434C218.378 258.789 217.974 260.144 217.57 261.475C219.519 262.806 221.468 262.782 222.347 260.714C222.846 259.55 222.015 257.791 221.706 256.317C221.682 256.151 221.183 255.913 220.993 255.961C220.589 256.104 220.232 256.413 219.876 256.674" stroke="#424346" stroke-width="1.78244" stroke-linecap="round" stroke-linejoin="round"/>
<path d="M262.915 343.109C259.397 347.411 255.547 351.285 250.295 353.495" stroke="#424346" stroke-width="1.78244" stroke-linecap="round" stroke-linejoin="round"/>
<path d="M249.559 320.865C251.888 324.668 254.217 328.447 256.379 331.988H262.154" stroke="#424346" stroke-width="1.78244" stroke-linecap="round" stroke-linejoin="round"/>
<path d="M208.752 258.171C211.889 259.074 212.222 261.783 211.628 264.088C209.774 271.004 212.222 276.043 217.664 280.059" stroke="#424346" stroke-width="1.78244" stroke-linecap="round" stroke-linejoin="round"/>
<path d="M242.501 257.434C241.906 258.765 241.336 260.072 240.48 261.973C242.097 262.092 243.237 262.163 244.354 262.259" stroke="#424346" stroke-width="1.78244" stroke-linecap="round" stroke-linejoin="round"/>
<path d="M246.588 260.025C246.564 258.052 246.921 255.747 243.617 256.698" stroke="#424346" stroke-width="1.78244" stroke-linecap="round" stroke-linejoin="round"/>
<path d="M200.602 344.607L205.046 349.051" stroke="#424346" stroke-width="1.78244" stroke-linecap="round" stroke-linejoin="round"/>
<path d="M248.084 354.993L241.406 357.227" stroke="#424346" stroke-width="1.78244" stroke-linecap="round" stroke-linejoin="round"/>
<path d="M251.793 270.791C252.791 272.407 253.766 273.999 254.764 275.615" stroke="#424346" stroke-width="1.78244" stroke-linecap="round" stroke-linejoin="round"/>
<path d="M205.047 258.171V262.259" stroke="#424346" stroke-width="1.78244" stroke-linecap="round" stroke-linejoin="round"/>
<path d="M189.098 308.626C189.216 309.981 189.335 311.335 189.478 312.714" stroke="#424346" stroke-width="1.78244" stroke-linecap="round" stroke-linejoin="round"/>
<path d="M271.067 307.508C270.829 308.744 270.568 309.98 270.33 311.216" stroke="#424346" stroke-width="1.78244" stroke-linecap="round" stroke-linejoin="round"/>
<path d="M251.412 260.025C252.03 259.288 252.648 258.551 253.266 257.791C253.551 257.743 253.86 257.719 254.145 257.672C254.335 259.193 254.549 260.714 254.739 262.259" stroke="#424346" stroke-width="1.78244" stroke-linecap="round" stroke-linejoin="round"/>
<path d="M273.658 309.363C273.539 310.48 273.42 311.597 273.277 312.69" stroke="#424346" stroke-width="1.78244" stroke-linecap="round" stroke-linejoin="round"/>
<path d="M193.186 308.245C192.948 309.243 192.687 310.218 192.449 311.216" stroke="#424346" stroke-width="1.78244" stroke-linecap="round" stroke-linejoin="round"/>
<path d="M228.406 234.072C230.545 235.046 232.66 235.949 234.348 233.335" stroke="black" stroke-width="1.78244" stroke-linecap="round" stroke-linejoin="round"/>
<path d="M258.091 258.55C257.972 259.548 257.854 260.523 257.711 261.521" stroke="#424346" stroke-width="1.78244" stroke-linecap="round" stroke-linejoin="round"/>
<path d="M245.115 286.738C244.878 287.475 244.284 288.306 244.426 288.948C247.017 300.593 249.726 312.191 254.812 323.052C255.501 324.525 256.737 325.737 257.711 327.045C261.704 325.69 260.991 322.981 260.325 320.485C257.569 310.171 252.911 300.641 248.086 291.182C247.349 289.756 246.375 288.449 245.519 287.094" stroke="#424346" stroke-width="1.78244" stroke-linecap="round" stroke-linejoin="round"/>
<path opacity="0.53" d="M925.129 37.3785C886.241 12.0996 840.651 -0.906203 794.278 0.0490712C747.906 1.00435 702.891 15.8766 665.076 42.7355L799.043 231.348L925.129 37.3785Z" fill="#548765"/>
<path opacity="0.3" d="M664.945 42.8283C628.777 68.5553 600.774 104.143 584.274 145.347C567.775 186.551 563.476 231.632 571.892 275.211C580.307 318.791 601.081 359.03 631.735 391.128C662.389 423.227 701.63 445.83 744.776 456.241L799.043 231.348L664.945 42.8283Z" fill="#D7B030"/>
<path opacity="0.3" d="M924.823 37.1803C963.226 62.0574 993.39 97.7635 1011.5 139.783C1029.61 181.803 1034.85 228.25 1026.56 273.249C1018.28 318.249 996.832 359.78 964.941 392.592C933.05 425.403 892.145 448.021 847.4 457.585L799.043 231.348L924.823 37.1803Z" fill="#D7B030"/>
<path d="M753.83 584.468C751.354 584.468 749.239 583.94 747.486 582.882C745.761 581.797 744.55 580.392 743.855 578.666C743.688 578.388 743.604 578.11 743.604 577.832C743.604 577.442 743.743 577.122 744.022 576.872C744.3 576.593 744.634 576.454 745.023 576.454C745.719 576.454 746.178 576.816 746.401 577.54C746.874 578.847 747.792 579.919 749.156 580.753C750.547 581.56 752.105 581.964 753.83 581.964C755.194 581.964 756.404 581.727 757.462 581.254C758.547 580.781 759.382 580.141 759.966 579.334C760.578 578.527 760.884 577.623 760.884 576.621C760.884 575.341 760.356 574.228 759.298 573.282C758.241 572.336 756.446 571.515 753.914 570.82C748.098 569.233 745.19 566.646 745.19 563.056C745.19 561.693 745.566 560.482 746.317 559.425C747.096 558.367 748.209 557.533 749.656 556.92C751.131 556.308 752.843 556.002 754.79 556.002C757.545 556.002 759.688 556.531 761.218 557.588C762.749 558.618 763.514 560.009 763.514 561.762C763.514 562.124 763.389 562.444 763.138 562.722C762.888 562.973 762.582 563.098 762.22 563.098C761.886 563.098 761.594 562.986 761.343 562.764C761.121 562.541 760.996 562.277 760.968 561.971C760.829 560.913 760.189 560.051 759.048 559.383C757.935 558.715 756.474 558.381 754.665 558.381C752.495 558.381 750.811 558.785 749.615 559.592C748.446 560.399 747.862 561.512 747.862 562.931C747.862 564.127 748.404 565.143 749.489 565.978C750.603 566.813 752.3 567.55 754.582 568.19C757.587 569.025 759.827 570.124 761.302 571.487C762.804 572.823 763.556 574.465 763.556 576.413C763.556 577.915 763.11 579.293 762.22 580.545C761.329 581.769 760.133 582.729 758.63 583.425C757.128 584.12 755.528 584.468 753.83 584.468ZM770.057 584.51C769.695 584.51 769.375 584.385 769.097 584.134C768.846 583.856 768.721 583.55 768.721 583.216V557.129C768.721 556.767 768.846 556.461 769.097 556.211C769.375 555.933 769.695 555.793 770.057 555.793C770.446 555.793 770.752 555.933 770.975 556.211C771.225 556.461 771.351 556.767 771.351 557.129V569.943C772.185 568.218 773.34 566.715 774.815 565.435C776.318 564.155 777.848 563.515 779.406 563.515C781.465 563.515 782.912 564.656 783.747 566.938C784.582 569.22 784.999 572.795 784.999 577.665C784.999 580.42 784.958 582.27 784.874 583.216C784.846 583.578 784.721 583.884 784.498 584.134C784.276 584.357 783.984 584.468 783.622 584.468C783.288 584.468 782.982 584.343 782.704 584.093C782.453 583.842 782.328 583.55 782.328 583.216C782.328 582.799 782.342 582.409 782.37 582.047L782.412 577.957C782.412 573.254 782.105 570.11 781.493 568.524C780.881 566.91 780.116 566.103 779.198 566.103C778.168 566.103 777.152 566.534 776.151 567.397C775.149 568.232 774.272 569.178 773.521 570.235C772.798 571.265 772.283 572.113 771.977 572.781C771.559 573.616 771.351 574.813 771.351 576.371V583.133C771.351 583.55 771.225 583.884 770.975 584.134C770.725 584.385 770.418 584.51 770.057 584.51ZM800.156 584.468C798.125 584.468 796.316 584.023 794.73 583.133C793.144 582.214 791.92 580.99 791.057 579.46C790.194 577.929 789.763 576.26 789.763 574.451C789.763 572.559 790.153 570.792 790.932 569.15C791.739 567.48 792.852 566.145 794.271 565.143C795.69 564.141 797.318 563.64 799.154 563.64C800.824 563.64 802.243 563.96 803.412 564.6C804.608 565.24 805.499 566.006 806.083 566.896C806.695 567.786 807.001 568.58 807.001 569.275C807.001 569.776 806.668 570.221 806 570.611L793.061 577.999C793.756 579.334 794.702 580.35 795.899 581.046C797.095 581.713 798.501 582.047 800.114 582.047C801.005 582.047 801.937 581.825 802.911 581.38C803.913 580.934 804.706 580.406 805.29 579.793C805.485 579.515 805.763 579.376 806.125 579.376C806.487 579.376 806.779 579.501 807.001 579.752C807.252 579.974 807.377 580.266 807.377 580.628C807.377 580.906 807.266 581.185 807.043 581.463C806.292 582.326 805.262 583.049 803.954 583.633C802.674 584.19 801.408 584.468 800.156 584.468ZM804.414 568.941C804.024 567.995 803.412 567.286 802.577 566.813C801.742 566.34 800.615 566.103 799.196 566.103C797.861 566.103 796.664 566.479 795.607 567.23C794.549 567.953 793.714 568.941 793.102 570.193C792.518 571.446 792.212 572.823 792.184 574.326C792.184 574.882 792.212 575.327 792.268 575.661L804.414 568.941ZM821.067 584.468C819.035 584.468 817.227 584.023 815.64 583.133C814.054 582.214 812.83 580.99 811.967 579.46C811.105 577.929 810.673 576.26 810.673 574.451C810.673 572.559 811.063 570.792 811.842 569.15C812.649 567.48 813.762 566.145 815.181 565.143C816.6 564.141 818.228 563.64 820.065 563.64C821.734 563.64 823.153 563.96 824.322 564.6C825.519 565.24 826.409 566.006 826.993 566.896C827.606 567.786 827.912 568.58 827.912 569.275C827.912 569.776 827.578 570.221 826.91 570.611L813.971 577.999C814.667 579.334 815.613 580.35 816.809 581.046C818.006 581.713 819.411 582.047 821.025 582.047C821.915 582.047 822.847 581.825 823.821 581.38C824.823 580.934 825.616 580.406 826.2 579.793C826.395 579.515 826.673 579.376 827.035 579.376C827.397 579.376 827.689 579.501 827.912 579.752C828.162 579.974 828.287 580.266 828.287 580.628C828.287 580.906 828.176 581.185 827.953 581.463C827.202 582.326 826.173 583.049 824.865 583.633C823.585 584.19 822.319 584.468 821.067 584.468ZM825.324 568.941C824.934 567.995 824.322 567.286 823.487 566.813C822.653 566.34 821.526 566.103 820.107 566.103C818.771 566.103 817.574 566.479 816.517 567.23C815.46 567.953 814.625 568.941 814.013 570.193C813.428 571.446 813.122 572.823 813.094 574.326C813.094 574.882 813.122 575.327 813.178 575.661L825.324 568.941ZM834.255 592.482C833.893 592.482 833.573 592.343 833.295 592.065C833.045 591.814 832.919 591.522 832.919 591.188V564.934C832.919 564.545 833.045 564.225 833.295 563.974C833.573 563.724 833.893 563.599 834.255 563.599C834.617 563.599 834.923 563.738 835.173 564.016C835.424 564.266 835.549 564.573 835.549 564.934V566.646C837.246 564.614 839.779 563.599 843.146 563.599C844.537 563.599 845.747 564.044 846.777 564.934C847.806 565.825 848.586 566.98 849.114 568.399C849.643 569.818 849.907 571.334 849.907 572.948C849.907 575.926 849.212 578.541 847.82 580.795C846.429 583.021 844.064 584.134 840.725 584.134C839.139 584.134 837.413 583.745 835.549 582.966V591.188C835.549 591.522 835.41 591.814 835.132 592.065C834.881 592.343 834.589 592.482 834.255 592.482ZM840.975 581.505C843.257 581.505 844.913 580.753 845.942 579.251C846.999 577.72 847.528 575.62 847.528 572.948C847.528 571.891 847.375 570.833 847.069 569.776C846.763 568.691 846.248 567.786 845.525 567.063C844.829 566.312 843.925 565.936 842.812 565.936C840.975 565.936 839.445 566.326 838.22 567.105C836.996 567.856 836.106 568.635 835.549 569.442V580.169C837.525 581.06 839.333 581.505 840.975 581.505Z" fill="#424346"/>
<path d="M783.271 260.859C781.845 256.582 783.461 252.636 785.125 248.786C786.29 246.101 788.333 243.748 789.545 241.086C790.567 238.781 791.043 236.262 791.566 233.814C792.088 231.414 792.302 228.942 792.801 226.542C793.324 224.07 796.343 221.456 800.098 221.931C803.924 222.406 805.825 224.45 806.277 227.777C806.918 232.531 807.798 237.26 809.461 241.823C810.103 243.558 811.291 245.15 812.171 246.814C812.884 248.168 813.501 249.547 814.167 250.902" stroke="#424346" stroke-width="2.37658" stroke-linecap="round" stroke-linejoin="round"/>
<path d="M815.139 254.111C816.09 256.535 816.019 258.959 815.139 261.407C814.688 262.667 815.733 263.546 816.518 264.425C818.181 266.232 820.605 266.968 822.839 267.99C826.761 269.773 830.801 271.365 835.103 272.268C837.123 272.696 839.095 273.242 841.543 273.837C840.83 274.336 840.45 274.859 840.046 274.882C836.742 274.954 833.439 275.049 830.159 274.882C827.379 274.74 824.574 274.336 821.841 273.813C820.249 273.504 818.538 272.933 817.349 272.007C816.019 270.985 814.664 270.842 813.119 270.842" stroke="#424346" stroke-width="2.37658" stroke-linecap="round" stroke-linejoin="round"/>
<path d="M761.882 451.889C760.29 453.22 760.028 454.884 760.408 456.5C759.814 457.83 759.101 458.995 758.769 460.255C758.507 461.205 758.721 462.251 758.721 463.273C758.721 463.915 758.65 464.58 758.721 465.222C758.887 466.671 759.125 468.097 759.387 469.856C758.745 473.421 760.432 476.867 762.191 481.002C761.953 482.428 762.619 484.329 764.068 486.041" stroke="#424346" stroke-width="2.37658" stroke-linecap="round" stroke-linejoin="round"/>
<path d="M759.696 274.026V272.885C758.626 273.289 757.842 273.598 756.701 274.05C757.272 274.477 757.581 274.905 757.913 274.905C761.288 274.953 764.663 275.072 768.014 274.905C770.866 274.763 773.717 274.359 776.522 273.836C778.114 273.527 779.564 272.695 781.085 272.101" stroke="#424346" stroke-width="2.37658" stroke-linecap="round" stroke-linejoin="round"/>
<path d="M811.574 277.592C811.93 279.042 812.049 280.467 810.742 281.632C813.166 284.27 813.451 285.411 812.762 289.166C814.592 290.449 814.307 292.232 814.141 293.966" stroke="#424346" stroke-width="2.37658" stroke-linecap="round" stroke-linejoin="round"/>
<path d="M823.863 310.317C824.766 311.362 825.646 312.384 825.099 313.882C825.004 314.143 825.408 314.618 825.669 314.927C826.882 316.448 827.737 317.993 826.882 319.918C826.715 320.298 826.905 320.869 827.072 321.32C827.262 321.938 827.951 322.604 827.785 323.079C826.953 325.456 829.163 327.19 829.187 329.329C829.187 330.518 828.712 331.73 828.165 332.918C828.521 333.75 828.878 334.558 829.258 335.485C828.569 336.697 828.307 337.98 829.234 339.311C830.209 340.689 829.234 341.949 828.83 343.209C828.498 344.231 828.022 345.086 828.735 346.274C829.353 347.273 828.521 348.508 827.642 349.435" stroke="#424346" stroke-width="2.37658" stroke-linecap="round" stroke-linejoin="round"/>
<path d="M767.229 317.423C765.447 318.422 764.33 319.895 763.902 321.701C763.736 322.438 763.973 323.246 764.068 324.006C764.116 324.434 764.425 325.028 764.235 325.219C762.88 326.573 763.712 328.07 763.807 329.591C763.355 330.209 762.619 330.827 762.547 331.493C762.381 332.824 761.264 334.107 762.405 335.628C762.88 336.27 762.143 337.505 762.333 338.409C762.832 340.666 762.785 342.781 762.001 345.039C761.692 345.942 762.619 347.202 763.046 348.461C762.951 349.079 762.619 350.006 762.714 350.886C762.856 352.454 762.5 353.88 761.953 355.354C761.573 356.423 761.906 357.706 761.858 358.895C761.858 359.322 761.763 359.869 761.454 360.107C760.028 361.224 760.147 362.602 760.48 364.052C758.365 366.975 758.222 367.664 758.935 371.324C757.533 372.56 756.867 374.057 758.103 375.792" stroke="#424346" stroke-width="2.37658" stroke-linecap="round" stroke-linejoin="round"/>
<path d="M814.547 292.517C816.496 294.038 817.731 295.82 818.444 298.173C819.086 300.288 820.845 302.118 822.081 304.067C822.77 305.184 823.744 306.277 823.958 307.465C824.172 308.582 823.53 309.818 823.269 311.006" stroke="#424346" stroke-width="2.37658" stroke-linecap="round" stroke-linejoin="round"/>
<path d="M759.91 273.147C763.285 272.149 766.731 271.293 769.987 270.081C773.385 268.798 776.689 267.277 779.873 265.613C781.276 264.876 782.321 263.569 783.438 262.452C783.676 262.215 783.462 261.644 783.462 261.24" stroke="#424346" stroke-width="2.37658" stroke-linecap="round" stroke-linejoin="round"/>
<path d="M810.387 500.609C812.336 501.37 813.904 500.562 815.544 499.754C817.54 498.756 819.299 497.567 820.44 495.809C820.796 495.238 820.844 494.501 820.986 494.05C822.246 493.028 823.862 492.291 824.337 491.174C825.288 488.893 827.546 487.134 827.474 484.449C827.474 483.926 828.187 483.379 828.615 482.856C829.661 481.525 830.469 480.123 830.421 478.412C830.421 477.77 830.683 477.057 831.015 476.463C831.515 475.56 831.776 474.8 831.253 473.754C830.968 473.184 831.087 472.257 831.419 471.663C832.727 469.381 832.227 467.242 831.182 465.056" stroke="#424346" stroke-width="2.37658" stroke-linecap="round" stroke-linejoin="round"/>
<path d="M826.834 348.913C828.593 351.265 829.234 353.808 828.212 356.423C828.925 357.801 830.47 358.87 829.068 360.51C828.949 360.653 829.567 361.295 829.805 361.722C830.161 362.364 830.47 363.029 830.803 363.671C831.682 365.477 830.684 367.046 830.019 368.662" stroke="#424346" stroke-width="2.37658" stroke-linecap="round" stroke-linejoin="round"/>
<path d="M757.913 376.124C756.345 377.883 755.917 379.831 756.725 381.994C756.868 382.398 757.105 383.016 756.891 383.206C755.37 384.585 755.917 386.034 756.583 387.436C755.275 389.528 753.802 391.524 755.537 393.901" stroke="#424346" stroke-width="2.37658" stroke-linecap="round" stroke-linejoin="round"/>
<path d="M776.141 498.851C776.782 500.967 778.018 502.583 780.49 503.319C781.654 503.652 782.748 504.246 783.865 504.722C784.197 504.864 784.577 505.126 784.839 505.054C787.429 504.341 789.426 506.171 791.779 506.29C794.63 506.433 797.577 506.623 799.693 504.888C801.38 504.627 802.996 504.722 804.208 504.127C805.396 503.533 806.585 503.391 807.797 503.082C809.08 502.749 810.197 501.846 811.385 501.204" stroke="#424346" stroke-width="2.37658" stroke-linecap="round" stroke-linejoin="round"/>
<path d="M765.637 488.869C768.013 490.343 767.776 493.337 769.843 494.858C771.792 496.284 772.553 498.756 775.143 499.516C775.452 499.611 775.808 499.516 776.117 499.516" stroke="#424346" stroke-width="2.37658" stroke-linecap="round" stroke-linejoin="round"/>
<path d="M833.749 391.597C834.628 392.809 834.985 394.045 833.891 395.518C835.341 398.18 835.507 400.984 833.559 403.693" stroke="#424346" stroke-width="2.37658" stroke-linecap="round" stroke-linejoin="round"/>
<path d="M756.13 394.091C755.393 395.446 754.68 396.777 755.488 398.369C755.75 398.892 755.488 399.676 755.322 400.294C755.061 401.364 754.466 402.433 754.419 403.503C754.371 404.334 754.918 405.19 755.298 406.354C754.966 407.685 754.039 409.42 755.726 410.989" stroke="#424346" stroke-width="2.37658" stroke-linecap="round" stroke-linejoin="round"/>
<path d="M759.101 433.4C758.412 435.135 757.343 436.798 758.317 438.747C759.196 440.506 759.838 442.312 760.29 444.237C760.575 445.473 761.074 446.495 760.765 447.85C760.432 449.394 761.335 450.82 762.286 452.104C762.595 452.531 762.951 452.935 763.284 453.339" stroke="#424346" stroke-width="2.37658" stroke-linecap="round" stroke-linejoin="round"/>
<path d="M830.398 449.395C831.001 450.852 831.111 452.025 830.731 452.912C832.442 455.241 833.963 457.736 831.682 460.493C832.514 462.181 833.06 463.773 831.967 465.413" stroke="#424346" stroke-width="2.37658" stroke-linecap="round" stroke-linejoin="round"/>
<path d="M756.343 410.442C754.679 412.889 754.679 415.385 756.153 417.904C755.226 420.043 755.273 420.328 756.842 422.705C755.06 425.2 756.129 427.624 757.626 429.977C756.557 431.736 757.293 433.162 758.506 434.469" stroke="#424346" stroke-width="2.37658" stroke-linecap="round" stroke-linejoin="round"/>
<path d="M833.559 414.886C835.032 412.913 835.745 410.893 834.2 408.636C834.01 408.35 834.438 407.709 834.557 407.233C834.889 405.902 835.103 404.548 834.153 403.312" stroke="#424346" stroke-width="2.37658" stroke-linecap="round" stroke-linejoin="round"/>
<path d="M832.775 379.666C833.274 380.997 834.558 382.28 833.061 383.872C835.223 386.582 835.081 389.386 832.966 392.119" stroke="#424346" stroke-width="2.37658" stroke-linecap="round" stroke-linejoin="round"/>
<path d="M829.59 449.941C830.493 448.468 831.42 446.971 832.347 445.426C831.586 444.333 830.968 443.477 830.374 442.645" stroke="#424346" stroke-width="2.37658" stroke-linecap="round" stroke-linejoin="round"/>
<path d="M777.923 296.082C775.808 296.699 774.406 298.102 773.194 299.646C772.814 300.122 772.766 300.811 772.576 301.405C772.362 302.047 772.22 302.736 771.958 303.354C771.839 303.639 771.269 303.805 771.222 304.067C770.77 306.847 767.49 308.582 767.276 311.006C767.086 313.288 765.85 315.427 766.254 317.756" stroke="#424346" stroke-width="2.37658" stroke-linecap="round" stroke-linejoin="round"/>
<path d="M832.371 430.549C833.892 429.241 832.799 427.839 832.514 426.413C834.058 424.607 834.272 422.611 833.821 420.377C833.631 419.402 834.106 418.309 834.296 417.287C834.439 417.311 834.605 417.335 834.748 417.359C834.462 416.574 834.154 415.79 833.821 414.911C833.512 415.125 833.345 415.267 833.155 415.41" stroke="#424346" stroke-width="2.37658" stroke-linecap="round" stroke-linejoin="round"/>
<path d="M810.578 278.114C812.242 276.997 813.359 275.571 813.525 273.67C813.596 272.79 813.406 271.887 813.359 271.008" stroke="#424346" stroke-width="2.37658" stroke-linecap="round" stroke-linejoin="round"/>
<path d="M785.647 271.175C784.958 272.649 785.22 273.98 786.218 275.287C786.479 275.643 786.574 276.285 786.408 276.689C785.338 279.374 786.836 281.49 788.214 283.629" stroke="#424346" stroke-width="2.37658" stroke-linecap="round" stroke-linejoin="round"/>
<path d="M779.896 293.586C779.944 290.663 781.465 288.476 784.056 286.836" stroke="#424346" stroke-width="2.37658" stroke-linecap="round" stroke-linejoin="round"/>
<path d="M829.59 443.168C831.016 441.647 831.586 439.959 830.968 438.01" stroke="#424346" stroke-width="2.37658" stroke-linecap="round" stroke-linejoin="round"/>
<path d="M787.026 282.202C786.099 283.319 785.148 284.436 784.293 285.6C784.126 285.814 784.388 286.289 784.459 286.646" stroke="#424346" stroke-width="2.37658" stroke-linecap="round" stroke-linejoin="round"/>
<path d="M830.777 367.948C831.76 369.739 831.934 371.149 831.3 372.179C833.819 374.698 833.558 377.526 831.966 380.402" stroke="#424346" stroke-width="2.37658" stroke-linecap="round" stroke-linejoin="round"/>
<path d="M829.805 439.08C830.922 437.25 832.015 435.397 833.132 433.567C832.989 433.519 832.823 433.471 832.68 433.4C832.514 432.568 832.348 431.737 832.205 430.905" stroke="#424346" stroke-width="2.37658" stroke-linecap="round" stroke-linejoin="round"/>
<path d="M779.706 292.517C778.209 293.42 777.14 294.584 776.926 296.248" stroke="#424346" stroke-width="2.37658" stroke-linecap="round" stroke-linejoin="round"/>
<path d="M808.414 272.601C809.888 271.769 811.123 270.438 813.167 270.818" stroke="#424346" stroke-width="2.37658" stroke-linecap="round" stroke-linejoin="round"/>
<path d="M783.057 270.818C785.409 270.794 787.762 270.699 789.545 272.553C789.664 272.244 789.735 272.054 789.806 271.887" stroke="#424346" stroke-width="2.37658" stroke-linecap="round" stroke-linejoin="round"/>
<path d="M813.549 259.434C813.882 260.028 814.214 260.622 814.547 261.216" stroke="#424346" stroke-width="2.37658" stroke-linecap="round" stroke-linejoin="round"/>
<path d="M806.229 502.939C806.68 502.535 807.155 502.108 807.607 501.703" stroke="#424346" stroke-width="2.37658" stroke-linecap="round" stroke-linejoin="round"/>
<path d="M784.245 259.434C784.054 259.909 783.841 260.385 783.65 260.86" stroke="#424346" stroke-width="2.37658" stroke-linecap="round" stroke-linejoin="round"/>
<path opacity="0.53" d="M1494.21 38.2823C1456.33 13.2726 1411.92 -0.0408571 1366.53 9.4147e-05C1321.14 0.0410454 1276.76 13.4345 1238.93 38.5126L1366.74 231.348L1494.21 38.2823Z" fill="#548765"/>
<path opacity="0.3" d="M1239.29 38.2689C1201.11 63.4752 1171.25 99.4394 1153.5 141.613C1135.76 183.788 1130.91 230.277 1139.59 275.204C1148.26 320.131 1170.06 361.476 1202.23 394.012C1234.41 426.548 1275.5 448.814 1320.33 457.993L1366.74 231.348L1239.29 38.2689Z" fill="#D7B030"/>
<path opacity="0.3" d="M1494.19 38.2689C1530.64 62.3284 1559.53 96.2143 1577.53 136.008C1595.53 175.801 1601.89 219.876 1595.89 263.137C1589.89 306.397 1571.77 347.075 1543.62 380.466C1515.47 413.858 1478.44 438.598 1436.82 451.827L1366.74 231.348L1494.19 38.2689Z" fill="#D7B030"/>
<path d="M1328.8 715.25C1328.44 715.25 1328.12 715.125 1327.84 714.875C1327.59 714.597 1327.46 714.277 1327.46 713.915V688.12C1327.46 687.758 1327.59 687.452 1327.84 687.202C1328.09 686.951 1328.41 686.826 1328.8 686.826C1329.19 686.826 1329.51 686.951 1329.76 687.202C1330.04 687.452 1330.18 687.758 1330.18 688.12V700.642L1348.04 698.137V688.12C1348.04 687.758 1348.17 687.452 1348.42 687.202C1348.67 686.951 1348.99 686.826 1349.38 686.826C1349.74 686.826 1350.05 686.951 1350.3 687.202C1350.57 687.452 1350.71 687.758 1350.71 688.12V713.915C1350.71 714.277 1350.57 714.597 1350.3 714.875C1350.05 715.125 1349.74 715.25 1349.38 715.25C1349.02 715.25 1348.7 715.125 1348.42 714.875C1348.17 714.597 1348.04 714.277 1348.04 713.915V700.85L1330.18 703.313V713.915C1330.18 714.277 1330.04 714.597 1329.76 714.875C1329.48 715.125 1329.16 715.25 1328.8 715.25ZM1364.56 715.25C1362.97 715.25 1361.52 714.833 1360.22 713.998C1358.94 713.136 1357.92 711.981 1357.17 710.534C1356.44 709.059 1356.08 707.431 1356.08 705.65C1356.08 703.758 1356.5 701.95 1357.34 700.224C1358.2 698.499 1359.38 697.108 1360.88 696.05C1362.39 694.965 1364.04 694.423 1365.85 694.423C1367.41 694.423 1368.83 694.854 1370.11 695.717C1371.42 696.551 1372.43 697.706 1373.15 699.181C1373.91 700.628 1374.28 702.228 1374.28 703.981C1374.28 705.984 1373.84 707.849 1372.95 709.574C1372.06 711.299 1370.86 712.677 1369.36 713.706C1367.88 714.736 1366.28 715.25 1364.56 715.25ZM1364.72 712.871C1365.92 712.871 1367.05 712.468 1368.1 711.661C1369.16 710.854 1370.01 709.783 1370.65 708.447C1371.29 707.111 1371.61 705.692 1371.61 704.19C1371.61 702.882 1371.35 701.671 1370.82 700.558C1370.29 699.417 1369.56 698.513 1368.65 697.845C1367.76 697.15 1366.75 696.802 1365.64 696.802C1364.42 696.802 1363.28 697.219 1362.22 698.054C1361.19 698.861 1360.35 699.946 1359.71 701.31C1359.1 702.645 1358.8 704.064 1358.8 705.567C1358.8 707.014 1359.06 708.294 1359.59 709.407C1360.15 710.492 1360.88 711.341 1361.8 711.953C1362.72 712.565 1363.69 712.871 1364.72 712.871ZM1380.85 715.25C1380.51 715.25 1380.21 715.125 1379.93 714.875C1379.65 714.624 1379.51 714.346 1379.51 714.04V695.675C1379.51 695.313 1379.64 695.021 1379.89 694.798C1380.17 694.548 1380.49 694.423 1380.85 694.423C1381.24 694.423 1381.56 694.548 1381.81 694.798C1382.06 695.021 1382.18 695.313 1382.18 695.675V699.223C1382.96 697.859 1383.92 696.704 1385.06 695.758C1386.23 694.784 1387.59 694.297 1389.15 694.297C1390.38 694.297 1391.25 694.645 1391.78 695.341C1392.34 696.009 1392.62 696.816 1392.62 697.762V699.097C1392.62 699.459 1392.49 699.765 1392.24 700.016C1391.99 700.238 1391.69 700.35 1391.32 700.35C1390.91 700.35 1390.6 700.224 1390.41 699.974C1390.21 699.723 1390.11 699.417 1390.11 699.056V698.096C1390.11 697.289 1389.64 696.885 1388.69 696.885C1387.05 696.885 1385.35 698.054 1383.6 700.391C1383.18 700.948 1382.84 701.643 1382.56 702.478C1382.31 703.313 1382.18 704.092 1382.18 704.816L1382.14 714.04C1382.14 714.346 1382 714.624 1381.72 714.875C1381.47 715.125 1381.18 715.25 1380.85 715.25ZM1401.44 715.334C1399.86 715.334 1398.48 715.014 1397.31 714.374C1396.17 713.706 1395.29 712.941 1394.68 712.078C1394.1 711.188 1393.81 710.437 1393.81 709.824C1393.81 709.463 1393.92 709.17 1394.14 708.948C1394.39 708.697 1394.7 708.572 1395.06 708.572C1395.67 708.572 1396.06 708.864 1396.23 709.449C1396.62 710.562 1397.27 711.424 1398.19 712.037C1399.11 712.649 1400.23 712.955 1401.57 712.955C1402.9 712.955 1404 712.593 1404.87 711.87C1405.73 711.146 1406.16 710.283 1406.16 709.282C1406.16 708.697 1406.02 708.21 1405.74 707.821C1405.49 707.403 1405.02 707.014 1404.32 706.652C1403.66 706.29 1402.67 705.915 1401.36 705.525C1399.11 704.83 1397.48 704.023 1396.48 703.104C1395.47 702.186 1394.97 700.976 1394.97 699.473C1394.97 697.97 1395.59 696.76 1396.81 695.842C1398.06 694.896 1399.84 694.423 1402.15 694.423C1404.24 694.423 1405.84 694.854 1406.95 695.717C1408.09 696.551 1408.66 697.706 1408.66 699.181C1408.66 699.849 1408.55 700.363 1408.33 700.725C1408.11 701.059 1407.79 701.226 1407.37 701.226C1407.01 701.226 1406.7 701.115 1406.45 700.892C1406.2 700.642 1406.08 700.363 1406.08 700.057C1406.08 699.918 1406.09 699.765 1406.12 699.598C1406.17 699.431 1406.2 699.278 1406.2 699.139C1406.2 698.388 1405.87 697.803 1405.2 697.386C1404.53 696.941 1403.52 696.718 1402.15 696.718C1400.65 696.718 1399.48 696.969 1398.65 697.47C1397.84 697.943 1397.44 698.624 1397.44 699.515C1397.44 700.377 1397.78 701.059 1398.48 701.56C1399.2 702.061 1400.44 702.603 1402.19 703.188C1403.86 703.744 1405.14 704.273 1406.03 704.774C1406.95 705.275 1407.61 705.873 1408 706.569C1408.41 707.237 1408.62 708.099 1408.62 709.157C1408.62 710.186 1408.32 711.174 1407.7 712.12C1407.12 713.066 1406.29 713.845 1405.2 714.457C1404.11 715.042 1402.86 715.334 1401.44 715.334ZM1422.4 715.25C1420.37 715.25 1418.56 714.805 1416.97 713.915C1415.39 712.997 1414.16 711.772 1413.3 710.242C1412.44 708.711 1412.01 707.042 1412.01 705.233C1412.01 703.341 1412.4 701.574 1413.18 699.932C1413.98 698.263 1415.1 696.927 1416.51 695.925C1417.93 694.923 1419.56 694.423 1421.4 694.423C1423.07 694.423 1424.49 694.743 1425.66 695.383C1426.85 696.023 1427.74 696.788 1428.33 697.678C1428.94 698.569 1429.25 699.362 1429.25 700.057C1429.25 700.558 1428.91 701.003 1428.24 701.393L1415.3 708.781C1416 710.117 1416.95 711.132 1418.14 711.828C1419.34 712.496 1420.74 712.83 1422.36 712.83C1423.25 712.83 1424.18 712.607 1425.15 712.162C1426.16 711.717 1426.95 711.188 1427.53 710.576C1427.73 710.297 1428.01 710.158 1428.37 710.158C1428.73 710.158 1429.02 710.283 1429.25 710.534C1429.5 710.757 1429.62 711.049 1429.62 711.41C1429.62 711.689 1429.51 711.967 1429.29 712.245C1428.54 713.108 1427.51 713.831 1426.2 714.416C1424.92 714.972 1423.65 715.25 1422.4 715.25ZM1426.66 699.723C1426.27 698.777 1425.66 698.068 1424.82 697.595C1423.99 697.122 1422.86 696.885 1421.44 696.885C1420.1 696.885 1418.91 697.261 1417.85 698.012C1416.79 698.736 1415.96 699.723 1415.35 700.976C1414.76 702.228 1414.46 703.605 1414.43 705.108C1414.43 705.664 1414.46 706.11 1414.51 706.443L1426.66 699.723Z" fill="#424346"/>
<path d="M1383.92 595.468C1386.36 595.705 1388.86 595.753 1391.28 596.252C1398.27 597.654 1404.76 595.682 1411.18 593.448C1414.17 592.402 1417.16 591.071 1419.75 589.265C1427.95 583.561 1433.18 575.647 1435.44 565.974C1436.6 561.079 1437.6 555.993 1437.56 551.002C1437.53 545.441 1436.44 539.832 1435.46 534.295C1433.9 525.406 1430.31 517.207 1426.22 509.198C1424.7 506.227 1424.39 502.947 1425.41 499.644C1425.67 498.788 1425.6 497.862 1425.67 496.958" stroke="#424346" stroke-width="2.37658" stroke-linecap="round" stroke-linejoin="round"/>
<path d="M1319.3 510.72C1312.45 520.82 1308.51 531.966 1307.49 544.134C1307.39 545.299 1306.87 546.44 1306.54 547.58" stroke="#424346" stroke-width="2.37658" stroke-linecap="round" stroke-linejoin="round"/>
<path d="M1306.77 551.239C1307.01 551.738 1307.46 552.214 1307.49 552.713C1307.99 563.075 1311.43 572.51 1316.9 581.184C1321.41 588.385 1328.16 592.853 1335.98 596.014C1340.54 597.868 1345.11 599.199 1350 598.581C1353.81 598.105 1357.54 597.107 1361.32 596.442C1364.26 595.919 1366.78 594.517 1369.47 593.329C1374.1 591.285 1379.14 591.499 1382.8 595.087C1385.11 597.345 1386.75 600.862 1387.43 604.071C1388.22 607.754 1387.91 611.747 1387.53 615.573C1387.13 619.732 1384.73 623.06 1381.71 625.888C1380.09 627.385 1378.24 628.668 1376.84 630.356C1374.55 633.089 1373.25 636.226 1374.58 639.909" stroke="#424346" stroke-width="2.37658" stroke-linecap="round" stroke-linejoin="round"/>
<path d="M1327.43 437.52C1326.02 433.836 1324.55 430.177 1323.27 426.469C1321.84 422.381 1322.29 418.104 1322.82 413.968C1323.24 410.57 1323.91 407.124 1325.03 403.915C1327.07 398.093 1330.9 393.435 1335.51 389.394C1338.48 386.804 1341.4 384.166 1344.35 381.528" stroke="#424346" stroke-width="2.37658" stroke-linecap="round" stroke-linejoin="round"/>
<path d="M1347.06 378.795C1347.86 375.112 1349 371.452 1349.43 367.744C1350.17 361.542 1350.48 355.315 1350.98 349.088C1351.24 345.904 1351.55 342.695 1351.69 339.511C1352.07 332.31 1352.47 325.109 1352.64 317.884C1352.74 314.152 1351.78 311.847 1347.77 310.493C1346.03 309.898 1344.3 309.233 1342.61 308.52C1339.24 307.118 1338.14 304.29 1337.93 300.915C1337.76 298.206 1340.4 295.639 1344.08 296.685C1345.53 297.089 1347.15 296.899 1348.77 296.637C1354.19 300.772 1359.34 305.43 1362 312.204C1364.02 317.337 1366.59 322.257 1366.92 327.937C1367.16 332.191 1367.66 336.445 1367.87 340.723C1368.09 344.977 1368.21 349.231 1368.11 353.485C1367.92 361.565 1367.26 369.598 1364.5 377.322C1364.05 378.605 1364.12 380.103 1363.98 381.481" stroke="#424346" stroke-width="2.37658" stroke-linecap="round" stroke-linejoin="round"/>
<path d="M1319.3 507.273C1316.04 500.832 1312.59 494.344 1311.81 487.119C1311.24 481.938 1311.26 476.567 1312.07 471.434C1313.26 463.829 1315.14 456.295 1317.16 448.833C1318.68 443.248 1320.56 437.71 1324.69 433.337" stroke="#424346" stroke-width="2.37658" stroke-linecap="round" stroke-linejoin="round"/>
<path d="M1424.94 439.469C1425.51 437.996 1426.05 436.498 1426.67 435.049C1429.62 428.038 1430.31 420.694 1429.88 413.184C1429.74 410.499 1429.76 407.789 1429.88 405.08C1430.12 398.972 1428.19 393.696 1424.2 389.109C1420.49 384.832 1416.64 380.696 1410.94 379.033" stroke="#424346" stroke-width="2.37658" stroke-linecap="round" stroke-linejoin="round"/>
<path d="M1385.15 261.13C1387.34 256.092 1386.32 250.982 1385.39 245.896C1384.84 242.783 1384.18 239.693 1383.7 236.556C1383.32 234.037 1384.34 231.922 1385.87 229.902C1387.34 227.905 1388.29 225.695 1388.15 223.057C1387.96 219.255 1383.92 215.999 1380.28 217.235C1377.14 218.304 1374.43 218.542 1372.39 215.595C1369.04 216.403 1365.95 217.235 1362.81 217.852C1361.89 218.043 1360.82 217.306 1359.89 217.472C1356.54 218.09 1352.71 216.878 1350.03 220.11C1349.24 221.037 1349.34 221.679 1349.72 222.867C1351.02 226.812 1352.38 230.829 1351.52 235.13C1350.91 238.315 1350.1 241.499 1349.86 244.708C1349.62 247.964 1349.96 251.243 1350.03 254.523C1350.05 256.068 1349.98 257.636 1350.05 259.181C1350.1 260.251 1350.36 261.32 1350.53 262.366" stroke="#424346" stroke-width="2.37658" stroke-linecap="round" stroke-linejoin="round"/>
<path d="M1425.67 506.299C1429.79 502.853 1431.64 498.005 1433.49 493.252C1437.77 482.296 1439.48 470.84 1438.65 459.124C1437.96 449.332 1434.85 440.349 1428.62 432.601C1428.53 432.482 1428.31 432.435 1428.15 432.34" stroke="#424346" stroke-width="2.37658" stroke-linecap="round" stroke-linejoin="round"/>
<path d="M1368.45 379.793C1368.21 381.433 1367.99 383.072 1367.69 384.712C1367.42 386.091 1367.04 387.469 1366.71 388.824C1366.9 388.99 1367.07 389.156 1367.26 389.299C1368.07 388.491 1368.85 387.707 1369.66 386.899C1370.44 386.114 1371.23 385.33 1372.32 384.237C1372.82 385.497 1373.46 386.423 1373.56 387.398C1373.84 390.06 1375.31 392.008 1377.05 393.767C1384.2 400.992 1393.11 404.367 1403.07 405.293C1403.71 405.341 1404.38 404.984 1405.05 404.842" stroke="#424346" stroke-width="2.37658" stroke-linecap="round" stroke-linejoin="round"/>
<path d="M1371.87 657.115C1371.3 655.428 1370.01 654.644 1368.47 653.836C1366.42 652.766 1364.59 651.198 1362.79 649.724C1359.39 646.92 1356.04 644.02 1352.71 641.145C1349.08 638.008 1348.89 633.682 1348.79 629.357C1348.72 626.79 1348.5 624.2 1349.5 621.752" stroke="#424346" stroke-width="2.37658" stroke-linecap="round" stroke-linejoin="round"/>
<path d="M1343.13 296.019C1342.8 291.028 1342.28 286.037 1342.21 281.022C1342.16 276.673 1343.13 272.467 1346.06 268.973C1348.22 266.383 1350.24 263.673 1352.5 261.154C1353.38 260.18 1354.76 259.633 1355.9 258.896" stroke="#424346" stroke-width="2.37658" stroke-linecap="round" stroke-linejoin="round"/>
<path d="M1342.16 619.543C1341.59 616.905 1342.71 614.504 1344.2 612.722C1348.72 607.351 1353.92 602.788 1361.05 601.053C1362.36 600.744 1363.5 599.698 1364.64 599.057C1364.38 597.821 1364.19 597.013 1364.02 596.205" stroke="#424346" stroke-width="2.37658" stroke-linecap="round" stroke-linejoin="round"/>
<path d="M1366.71 622.49C1366.47 623.963 1366.21 625.437 1365.97 626.91C1365.9 627.386 1365.97 627.885 1365.97 629.025C1372.29 624.296 1379.28 621.444 1383.92 615.384" stroke="#424346" stroke-width="2.37658" stroke-linecap="round" stroke-linejoin="round"/>
<path d="M1391.28 310.278C1392.09 310.611 1392.92 310.943 1393.73 311.252C1395.25 310.706 1396.01 309.731 1395.63 308.02C1393.49 306.38 1391.35 304.836 1388.31 304.764C1386.41 304.717 1385.32 302.839 1384.65 301.176C1383.25 297.611 1380.95 294.093 1383.63 290.125" stroke="#424346" stroke-width="2.37658" stroke-linecap="round" stroke-linejoin="round"/>
<path d="M1399.39 361.611C1401.36 361.065 1400.67 359.686 1400.08 358.688C1399.1 357.072 1397.87 355.646 1396.54 353.888C1397.8 353.579 1398.72 353.341 1399.96 353.032C1398.63 350.632 1397.37 348.398 1396.06 346.045C1396.96 345.665 1397.82 345.308 1399.01 344.809C1397.77 342.884 1396.49 341.125 1395.47 339.224C1394.82 338.036 1394.61 336.634 1394.21 335.326" stroke="#424346" stroke-width="2.37658" stroke-linecap="round" stroke-linejoin="round"/>
<path d="M1405.52 404.604C1402.17 401.729 1398.65 399.043 1395.51 395.954C1393.42 393.886 1391.78 391.319 1390.1 388.848C1389.69 388.254 1389.88 387.232 1389.81 386.424" stroke="#424346" stroke-width="2.37658" stroke-linecap="round" stroke-linejoin="round"/>
<path d="M1370.66 267.523C1371.35 267.143 1372.06 266.739 1372.87 266.287C1373.82 268.236 1372.51 269.377 1371.89 270.708C1371.23 272.157 1370.68 273.655 1369.97 275.461C1373.32 273.94 1376.03 272.68 1378.76 271.421" stroke="#424346" stroke-width="2.37658" stroke-linecap="round" stroke-linejoin="round"/>
<path d="M1389.31 289.388C1390.12 286.94 1391.05 284.492 1391.76 282.021C1393.11 277.22 1391.93 272.633 1389.98 268.308C1389.1 266.311 1387.43 264.672 1386.13 262.865C1384.61 260.798 1382.54 259.871 1380 259.918" stroke="#424346" stroke-width="2.37658" stroke-linecap="round" stroke-linejoin="round"/>
<path d="M1392.52 304.859C1396.46 301.485 1398.87 297.207 1399.58 292.073C1399.72 291.147 1399.15 290.125 1398.89 289.126" stroke="#424346" stroke-width="2.37658" stroke-linecap="round" stroke-linejoin="round"/>
<path d="M1377.03 279.81C1379.16 279.144 1381.26 278.408 1383.42 277.861C1385.84 277.243 1388.29 276.459 1390.79 277.6" stroke="#424346" stroke-width="2.37658" stroke-linecap="round" stroke-linejoin="round"/>
<path d="M1352.24 293.309C1349.39 291.431 1350.48 288.365 1350.43 285.941C1350.36 282.923 1351.43 279.881 1352 276.863" stroke="#424346" stroke-width="2.37658" stroke-linecap="round" stroke-linejoin="round"/>
<path d="M1390.31 377.321C1391.86 377.488 1393.42 377.654 1394.97 377.821C1397.23 378.034 1399.46 378.225 1401.74 378.438C1401.88 377.583 1401.98 376.846 1402.1 376.109" stroke="#424346" stroke-width="2.37658" stroke-linecap="round" stroke-linejoin="round"/>
<path d="M1401.6 326.962C1398.98 324.015 1396.3 321.116 1393.78 318.074C1393.21 317.408 1393.16 316.315 1392.88 315.412" stroke="#424346" stroke-width="2.37658" stroke-linecap="round" stroke-linejoin="round"/>
<path d="M1400.62 387.637C1399.65 386.9 1398.48 386.306 1397.7 385.403C1395.8 383.121 1394.06 380.673 1392.26 378.32" stroke="#424346" stroke-width="2.37658" stroke-linecap="round" stroke-linejoin="round"/>
<path d="M1383.92 289.626C1385.22 287.083 1386.44 284.492 1387.88 282.044C1388.72 280.666 1389.98 279.573 1391.05 278.337" stroke="#424346" stroke-width="2.37658" stroke-linecap="round" stroke-linejoin="round"/>
<path d="M1384.65 288.889C1386.72 289.317 1388.77 289.745 1390.48 290.101C1393.23 289.578 1395.71 289.151 1398.18 288.604C1398.6 288.509 1398.91 287.82 1399.29 287.416" stroke="#424346" stroke-width="2.37658" stroke-linecap="round" stroke-linejoin="round"/>
<path d="M1320.53 507.272C1320.94 504.991 1321.34 502.686 1321.77 500.404" stroke="#424346" stroke-width="2.37658" stroke-linecap="round" stroke-linejoin="round"/>
<path d="M1348.29 624.462C1347.03 625.722 1345.75 627.005 1344.47 628.288C1342.71 626.007 1343.11 623.654 1344.61 621.254C1345.3 620.137 1345.92 618.972 1346.58 617.808" stroke="#424346" stroke-width="2.37658" stroke-linecap="round" stroke-linejoin="round"/>
<path d="M1369.92 654.169C1369.85 653.1 1369.75 652.03 1369.68 650.985C1369.32 646.731 1370.23 642.667 1371.7 638.721C1371.91 638.151 1372.96 637.89 1373.6 637.462" stroke="#424346" stroke-width="2.37658" stroke-linecap="round" stroke-linejoin="round"/>
<path d="M1396.2 369.217C1398.48 369.454 1400.79 369.74 1403.07 369.93C1403.64 369.977 1404.21 369.787 1404.78 369.692" stroke="#424346" stroke-width="2.37658" stroke-linecap="round" stroke-linejoin="round"/>
<path d="M1348.53 300.201C1345.61 299.844 1342.61 299.797 1340.19 297.753" stroke="#424346" stroke-width="2.37658" stroke-linecap="round" stroke-linejoin="round"/>
<path d="M1406.52 370.453C1403.19 367.934 1400.43 364.939 1398.65 361.113" stroke="#424346" stroke-width="2.37658" stroke-linecap="round" stroke-linejoin="round"/>
<path d="M1388.1 383.952C1388.53 384.712 1388.98 385.496 1389.17 385.829C1391.57 386.518 1393.49 387.184 1395.47 387.564C1396.3 387.73 1397.25 387.303 1398.15 387.136" stroke="#424346" stroke-width="2.37658" stroke-linecap="round" stroke-linejoin="round"/>
<path d="M1375.07 281.284C1376 281.403 1376.33 281.023 1376.6 280.072C1377.17 278.052 1378.07 276.151 1378.73 274.154C1379 273.394 1379 272.515 1379 271.707C1379 270.637 1379.57 270.376 1380.49 270.471" stroke="#424346" stroke-width="2.37658" stroke-linecap="round" stroke-linejoin="round"/>
<path d="M1389.81 293.309C1392.85 292.952 1395.66 292.168 1397.42 289.387" stroke="#424346" stroke-width="2.37658" stroke-linecap="round" stroke-linejoin="round"/>
<path d="M1397.92 334.328C1397.11 332.688 1396.3 331.049 1395.44 329.409C1394.92 328.411 1394.3 327.436 1393.73 326.462" stroke="#424346" stroke-width="2.37658" stroke-linecap="round" stroke-linejoin="round"/>
<path d="M1381.47 218.874C1380.66 219.421 1379.85 219.991 1379 220.585C1379.61 221.821 1380.07 222.724 1380.66 223.889C1381.56 223.366 1382.25 222.962 1382.94 222.558" stroke="#424346" stroke-width="2.37658" stroke-linecap="round" stroke-linejoin="round"/>
<path d="M1392.26 325.988C1394.54 326.321 1396.84 326.677 1399.15 326.962C1399.72 327.033 1400.29 326.891 1400.86 326.867" stroke="#424346" stroke-width="2.37658" stroke-linecap="round" stroke-linejoin="round"/>
<path d="M1409.46 378.058C1406.85 377.297 1404.31 376.347 1401.67 375.634C1398.91 374.873 1396.99 372.069 1395.7 369.217" stroke="#424346" stroke-width="2.37658" stroke-linecap="round" stroke-linejoin="round"/>
<path d="M1363.03 627.147C1363.07 626.173 1363.12 625.175 1363.17 624.153C1364.55 623.416 1365.9 622.727 1367.19 621.943C1367.5 621.753 1367.54 621.158 1367.71 620.754" stroke="#424346" stroke-width="2.37658" stroke-linecap="round" stroke-linejoin="round"/>
<path d="M1355.42 222.82H1357.51C1358.15 220.943 1357.94 219.754 1356.66 218.899" stroke="#424346" stroke-width="2.37658" stroke-linecap="round" stroke-linejoin="round"/>
<path d="M1352.24 278.574C1353.04 279.334 1353.85 280.095 1354.66 280.856C1355.52 279.311 1356.32 277.837 1357.16 276.364" stroke="#424346" stroke-width="2.37658" stroke-linecap="round" stroke-linejoin="round"/>
<path d="M1348.79 296.256C1348.6 294.782 1348.43 293.309 1348.2 291.598H1350.26" stroke="#424346" stroke-width="2.37658" stroke-linecap="round" stroke-linejoin="round"/>
<path d="M1363.29 382.977C1365.26 381.67 1367.21 380.363 1369.18 379.056" stroke="#424346" stroke-width="2.37658" stroke-linecap="round" stroke-linejoin="round"/>
<path d="M1341.9 620.755C1343.21 619.519 1344.08 617.737 1346.32 617.737C1346.89 617.737 1347.46 616.833 1348.03 616.334" stroke="#424346" stroke-width="2.37658" stroke-linecap="round" stroke-linejoin="round"/>
<path d="M1392.76 334.329C1393.9 334.495 1395.04 334.662 1396.2 334.828C1397.37 334.995 1398.49 335.161 1399.65 335.327" stroke="#424346" stroke-width="2.37658" stroke-linecap="round" stroke-linejoin="round"/>
<path d="M1384.89 614.386C1385.7 613.483 1386.53 612.58 1387.34 611.677" stroke="#424346" stroke-width="2.37658" stroke-linecap="round" stroke-linejoin="round"/>
<path d="M1392.64 314.936C1393.54 314.817 1394.42 314.722 1395.49 314.58C1394.75 313.273 1394.25 312.37 1393.76 311.49" stroke="#424346" stroke-width="2.37658" stroke-linecap="round" stroke-linejoin="round"/>
<path d="M1358.61 278.337C1358.37 277.766 1358.11 277.196 1357.87 276.626" stroke="#424346" stroke-width="2.37658" stroke-linecap="round" stroke-linejoin="round"/>
<rect opacity="0.53" x="285.045" y="819.261" width="52" height="52" rx="12" fill="#548765"/>
<path d="M380.013 855.517C379.138 855.517 378.701 855.112 378.701 854.301V834.781C378.701 834.504 378.797 834.269 378.989 834.077C379.202 833.864 379.448 833.757 379.725 833.757H385.485C387.021 833.757 388.312 834.024 389.357 834.557C390.424 835.069 391.213 835.741 391.725 836.573C392.258 837.384 392.525 838.227 392.525 839.101C392.525 840.147 392.322 841.043 391.917 841.789C391.533 842.536 391.032 843.133 390.413 843.581C393.08 844.563 394.413 846.323 394.413 848.861C394.413 850.995 393.208 852.637 390.797 853.789C388.386 854.941 384.792 855.517 380.013 855.517ZM386.797 843.037C387.48 843.037 388.109 842.856 388.685 842.493C389.261 842.131 389.709 841.651 390.029 841.053C390.349 840.456 390.509 839.837 390.509 839.197C390.509 838.173 390.061 837.341 389.165 836.701C388.269 836.04 387.042 835.709 385.485 835.709H380.781V843.037H386.797ZM380.781 853.597C384.152 853.576 386.925 853.171 389.101 852.381C391.277 851.592 392.365 850.419 392.365 848.861C392.365 847.709 391.885 846.781 390.925 846.077C389.965 845.352 388.685 844.989 387.085 844.989H380.781V853.597ZM399.633 836.957C399.355 836.957 399.121 836.861 398.929 836.669C398.737 836.477 398.641 836.243 398.641 835.965L398.673 834.653C398.673 834.397 398.779 834.173 398.993 833.981C399.206 833.789 399.441 833.693 399.697 833.693C399.953 833.693 400.177 833.8 400.369 834.013C400.561 834.205 400.657 834.429 400.657 834.685L400.625 835.997C400.625 836.275 400.518 836.509 400.305 836.701C400.113 836.872 399.889 836.957 399.633 836.957ZM399.441 855.453C399.163 855.453 398.918 855.357 398.705 855.165C398.491 854.952 398.385 854.707 398.385 854.429L398.577 840.541C398.577 840.264 398.683 840.019 398.897 839.805C399.11 839.592 399.355 839.485 399.633 839.485C399.91 839.485 400.145 839.592 400.337 839.805C400.55 839.997 400.657 840.243 400.657 840.541L400.465 854.429C400.465 854.707 400.358 854.952 400.145 855.165C399.953 855.357 399.718 855.453 399.441 855.453ZM406.659 855.453C406.381 855.453 406.136 855.357 405.923 855.165C405.731 854.973 405.635 854.76 405.635 854.525V840.413C405.635 840.136 405.731 839.912 405.923 839.741C406.136 839.549 406.381 839.453 406.659 839.453C406.936 839.453 407.171 839.549 407.363 839.741C407.555 839.912 407.651 840.136 407.651 840.413V845.469C408.269 843.549 409.123 842.077 410.211 841.053C411.32 840.008 412.568 839.485 413.955 839.485C415.128 839.485 416.056 839.784 416.739 840.381C417.421 840.979 417.912 841.928 418.211 843.229C418.509 844.509 418.659 846.237 418.659 848.413C418.659 850.547 418.648 851.944 418.627 852.605V854.429C418.627 854.707 418.531 854.952 418.339 855.165C418.168 855.357 417.944 855.453 417.667 855.453C417.411 855.453 417.187 855.357 416.995 855.165C416.803 854.952 416.707 854.717 416.707 854.461V852.669C416.685 852.008 416.675 850.632 416.675 848.541C416.675 846.557 416.568 845.053 416.355 844.029C416.163 843.005 415.853 842.312 415.427 841.949C415.021 841.565 414.435 841.373 413.667 841.373C412.941 841.373 412.227 841.64 411.523 842.173C410.819 842.707 410.2 843.464 409.667 844.445C408.963 845.725 408.451 846.931 408.131 848.061C407.832 849.192 407.672 850.355 407.651 851.549L407.619 854.397C407.619 854.696 407.523 854.952 407.331 855.165C407.16 855.357 406.936 855.453 406.659 855.453ZM428.794 855.453C427.578 855.453 426.469 855.133 425.466 854.493C424.485 853.832 423.706 852.947 423.13 851.837C422.576 850.707 422.298 849.459 422.298 848.093C422.298 846.643 422.618 845.256 423.258 843.933C423.92 842.611 424.826 841.544 425.978 840.733C427.13 839.901 428.4 839.485 429.786 839.485C430.981 839.485 432.069 839.816 433.05 840.477C434.053 841.117 434.832 842.003 435.386 843.133C435.962 844.243 436.25 845.469 436.25 846.813C436.25 848.349 435.909 849.779 435.226 851.101C434.544 852.424 433.626 853.48 432.474 854.269C431.344 855.059 430.117 855.453 428.794 855.453ZM428.922 853.629C429.84 853.629 430.704 853.32 431.514 852.701C432.325 852.083 432.976 851.261 433.466 850.237C433.957 849.213 434.202 848.125 434.202 846.973C434.202 845.971 434 845.043 433.594 844.189C433.189 843.315 432.634 842.621 431.93 842.109C431.248 841.576 430.48 841.309 429.626 841.309C428.688 841.309 427.813 841.629 427.002 842.269C426.213 842.888 425.573 843.72 425.082 844.765C424.613 845.789 424.378 846.877 424.378 848.029C424.378 849.139 424.581 850.12 424.986 850.973C425.413 851.805 425.978 852.456 426.682 852.925C427.386 853.395 428.133 853.629 428.922 853.629ZM446.212 855.453C444.974 855.453 443.812 855.155 442.724 854.557C441.657 853.939 440.804 853.096 440.164 852.029C439.545 850.963 439.236 849.789 439.236 848.509C439.236 847.059 439.566 845.64 440.228 844.253C440.91 842.845 441.806 841.704 442.916 840.829C444.025 839.933 445.177 839.485 446.372 839.485C447.481 839.485 448.388 839.667 449.092 840.029C449.817 840.392 450.51 840.957 451.172 841.725C451.342 841.896 451.428 842.12 451.428 842.397C451.428 842.675 451.332 842.909 451.14 843.101C450.969 843.293 450.745 843.389 450.468 843.389C450.169 843.389 449.924 843.272 449.732 843.037C449.262 842.483 448.782 842.067 448.292 841.789C447.801 841.491 447.182 841.341 446.436 841.341C445.582 841.341 444.75 841.683 443.94 842.365C443.129 843.048 442.468 843.944 441.956 845.053C441.444 846.141 441.188 847.272 441.188 848.445C441.188 849.512 441.433 850.44 441.924 851.229C442.436 851.997 443.076 852.584 443.844 852.989C444.633 853.395 445.422 853.597 446.212 853.597C448.046 853.597 449.476 852.861 450.5 851.389C450.777 851.005 451.076 850.813 451.396 850.813C451.673 850.813 451.908 850.909 452.1 851.101C452.292 851.293 452.388 851.517 452.388 851.773C452.388 851.987 452.281 852.232 452.068 852.509C451.513 853.32 450.713 854.013 449.668 854.589C448.622 855.165 447.47 855.453 446.212 855.453ZM460.049 855.549C458.855 855.549 457.905 855.283 457.201 854.749C456.519 854.216 456.017 853.309 455.697 852.029C455.377 850.749 455.217 848.968 455.217 846.685C455.217 844.232 455.345 842.216 455.601 840.637C455.665 840.211 455.772 839.912 455.921 839.741C456.092 839.549 456.327 839.453 456.625 839.453C456.881 839.453 457.095 839.539 457.265 839.709C457.457 839.88 457.553 840.115 457.553 840.413C457.553 840.733 457.521 841.149 457.457 841.661C457.265 843.197 457.169 845.128 457.169 847.453C457.169 849.693 457.393 851.304 457.841 852.285C458.289 853.267 459.036 853.757 460.081 853.757C461.041 853.757 462.001 853.512 462.961 853.021C463.943 852.509 464.636 852.019 465.041 851.549C465.297 851.251 465.425 850.771 465.425 850.109L465.553 840.349C465.553 840.093 465.649 839.88 465.841 839.709C466.033 839.539 466.257 839.453 466.513 839.453C466.769 839.453 466.993 839.539 467.185 839.709C467.377 839.88 467.473 840.093 467.473 840.349V854.461C467.473 854.717 467.367 854.952 467.153 855.165C466.94 855.357 466.695 855.453 466.417 855.453C466.076 855.453 465.799 855.347 465.585 855.133C465.393 854.92 465.297 854.653 465.297 854.333V853.117C464.828 853.736 464.103 854.301 463.121 854.813C462.161 855.304 461.137 855.549 460.049 855.549ZM473.065 855.453C472.809 855.453 472.574 855.368 472.361 855.197C472.148 855.005 472.041 854.792 472.041 854.557V834.429C472.041 834.152 472.137 833.928 472.329 833.757C472.521 833.565 472.766 833.469 473.065 833.469C473.321 833.469 473.545 833.565 473.737 833.757C473.95 833.949 474.057 834.173 474.057 834.429V854.557C474.057 854.792 473.95 855.005 473.737 855.197C473.545 855.368 473.321 855.453 473.065 855.453ZM489.569 855.709C489.249 855.709 489.004 855.603 488.833 855.389C488.662 855.197 488.577 854.952 488.577 854.653V853.757C488.001 854.269 487.308 854.685 486.497 855.005C485.686 855.304 484.876 855.453 484.065 855.453C482.913 855.453 481.878 855.165 480.961 854.589C480.044 854.013 479.318 853.203 478.785 852.157C478.273 851.091 478.017 849.885 478.017 848.541C478.017 847.091 478.316 845.672 478.913 844.285C479.532 842.877 480.417 841.725 481.569 840.829C482.742 839.933 484.118 839.485 485.697 839.485C486.678 839.485 487.542 839.613 488.289 839.869C489.036 840.125 489.793 840.435 490.561 840.797V854.653C490.561 854.952 490.465 855.197 490.273 855.389C490.081 855.603 489.846 855.709 489.569 855.709ZM484.065 853.565C484.897 853.565 485.729 853.373 486.561 852.989C487.393 852.584 488.033 852.157 488.481 851.709L488.609 842.013C488.268 841.864 487.82 841.725 487.265 841.597C486.732 841.448 486.23 841.373 485.761 841.373C484.716 841.373 483.756 841.683 482.881 842.301C482.006 842.92 481.313 843.773 480.801 844.861C480.31 845.928 480.065 847.133 480.065 848.477C480.065 850.035 480.438 851.272 481.185 852.189C481.932 853.107 482.892 853.565 484.065 853.565ZM496.565 855.453C496.309 855.453 496.074 855.357 495.861 855.165C495.648 854.973 495.541 854.76 495.541 854.525V840.445C495.541 840.168 495.637 839.944 495.829 839.773C496.042 839.581 496.288 839.485 496.565 839.485C496.864 839.485 497.109 839.581 497.301 839.773C497.493 839.944 497.589 840.168 497.589 840.445V843.165C498.186 842.12 498.922 841.235 499.797 840.509C500.693 839.763 501.738 839.389 502.933 839.389C503.872 839.389 504.544 839.656 504.949 840.189C505.376 840.701 505.589 841.32 505.589 842.045V843.069C505.589 843.347 505.493 843.581 505.301 843.773C505.109 843.944 504.874 844.029 504.597 844.029C504.277 844.029 504.042 843.933 503.893 843.741C503.744 843.549 503.669 843.315 503.669 843.037V842.301C503.669 841.683 503.306 841.373 502.581 841.373C501.322 841.373 500.021 842.269 498.677 844.061C498.357 844.488 498.09 845.021 497.877 845.661C497.685 846.301 497.589 846.899 497.589 847.453L497.557 854.525C497.557 854.76 497.45 854.973 497.237 855.165C497.045 855.357 496.821 855.453 496.565 855.453ZM522.979 855.485C522.553 855.485 522.243 855.251 522.051 854.781L516.355 840.829C516.313 840.659 516.291 840.541 516.291 840.477C516.291 840.2 516.387 839.965 516.579 839.773C516.793 839.581 517.049 839.485 517.347 839.485C517.753 839.485 518.062 839.709 518.275 840.157L522.979 852.029L527.715 840.061C527.801 839.891 527.918 839.752 528.067 839.645C528.238 839.517 528.43 839.453 528.643 839.453C528.921 839.453 529.155 839.56 529.347 839.773C529.561 839.965 529.667 840.189 529.667 840.445C529.667 840.573 529.625 840.723 529.539 840.893L523.907 854.845C523.715 855.272 523.406 855.485 522.979 855.485ZM533.57 836.957C533.293 836.957 533.058 836.861 532.866 836.669C532.674 836.477 532.578 836.243 532.578 835.965L532.61 834.653C532.61 834.397 532.717 834.173 532.93 833.981C533.144 833.789 533.378 833.693 533.634 833.693C533.89 833.693 534.114 833.8 534.306 834.013C534.498 834.205 534.594 834.429 534.594 834.685L534.562 835.997C534.562 836.275 534.456 836.509 534.242 836.701C534.05 836.872 533.826 836.957 533.57 836.957ZM533.378 855.453C533.101 855.453 532.856 855.357 532.642 855.165C532.429 854.952 532.322 854.707 532.322 854.429L532.514 840.541C532.514 840.264 532.621 840.019 532.834 839.805C533.048 839.592 533.293 839.485 533.57 839.485C533.848 839.485 534.082 839.592 534.274 839.805C534.488 839.997 534.594 840.243 534.594 840.541L534.402 854.429C534.402 854.707 534.296 854.952 534.082 855.165C533.89 855.357 533.656 855.453 533.378 855.453ZM543.668 855.517C542.452 855.517 541.396 855.272 540.5 854.781C539.626 854.269 538.954 853.683 538.484 853.021C538.036 852.339 537.812 851.763 537.812 851.293C537.812 851.016 537.898 850.792 538.068 850.621C538.26 850.429 538.495 850.333 538.772 850.333C539.242 850.333 539.54 850.557 539.668 851.005C539.967 851.859 540.468 852.52 541.172 852.989C541.876 853.459 542.74 853.693 543.764 853.693C544.788 853.693 545.631 853.416 546.292 852.861C546.954 852.307 547.284 851.645 547.284 850.877C547.284 850.429 547.178 850.056 546.964 849.757C546.772 849.437 546.41 849.139 545.876 848.861C545.364 848.584 544.607 848.296 543.604 847.997C541.876 847.464 540.628 846.845 539.86 846.141C539.092 845.437 538.708 844.509 538.708 843.357C538.708 842.205 539.178 841.277 540.116 840.573C541.076 839.848 542.442 839.485 544.212 839.485C545.812 839.485 547.039 839.816 547.892 840.477C548.767 841.117 549.204 842.003 549.204 843.133C549.204 843.645 549.119 844.04 548.948 844.317C548.778 844.573 548.532 844.701 548.212 844.701C547.935 844.701 547.7 844.616 547.508 844.445C547.316 844.253 547.22 844.04 547.22 843.805C547.22 843.699 547.231 843.581 547.252 843.453C547.295 843.325 547.316 843.208 547.316 843.101C547.316 842.525 547.06 842.077 546.548 841.757C546.036 841.416 545.258 841.245 544.212 841.245C543.06 841.245 542.164 841.437 541.524 841.821C540.906 842.184 540.596 842.707 540.596 843.389C540.596 844.051 540.863 844.573 541.396 844.957C541.951 845.341 542.9 845.757 544.244 846.205C545.524 846.632 546.506 847.037 547.188 847.421C547.892 847.805 548.394 848.264 548.692 848.797C549.012 849.309 549.172 849.971 549.172 850.781C549.172 851.571 548.938 852.328 548.468 853.053C548.02 853.779 547.38 854.376 546.548 854.845C545.716 855.293 544.756 855.517 543.668 855.517ZM554.133 836.957C553.855 836.957 553.621 836.861 553.429 836.669C553.237 836.477 553.141 836.243 553.141 835.965L553.173 834.653C553.173 834.397 553.279 834.173 553.493 833.981C553.706 833.789 553.941 833.693 554.197 833.693C554.453 833.693 554.677 833.8 554.869 834.013C555.061 834.205 555.157 834.429 555.157 834.685L555.125 835.997C555.125 836.275 555.018 836.509 554.805 836.701C554.613 836.872 554.389 836.957 554.133 836.957ZM553.941 855.453C553.663 855.453 553.418 855.357 553.205 855.165C552.991 854.952 552.885 854.707 552.885 854.429L553.077 840.541C553.077 840.264 553.183 840.019 553.397 839.805C553.61 839.592 553.855 839.485 554.133 839.485C554.41 839.485 554.645 839.592 554.837 839.805C555.05 839.997 555.157 840.243 555.157 840.541L554.965 854.429C554.965 854.707 554.858 854.952 554.645 855.165C554.453 855.357 554.218 855.453 553.941 855.453ZM565.607 855.453C564.391 855.453 563.281 855.133 562.279 854.493C561.297 853.832 560.519 852.947 559.943 851.837C559.388 850.707 559.111 849.459 559.111 848.093C559.111 846.643 559.431 845.256 560.071 843.933C560.732 842.611 561.639 841.544 562.791 840.733C563.943 839.901 565.212 839.485 566.599 839.485C567.793 839.485 568.881 839.816 569.863 840.477C570.865 841.117 571.644 842.003 572.199 843.133C572.775 844.243 573.063 845.469 573.063 846.813C573.063 848.349 572.721 849.779 572.039 851.101C571.356 852.424 570.439 853.48 569.287 854.269C568.156 855.059 566.929 855.453 565.607 855.453ZM565.735 853.629C566.652 853.629 567.516 853.32 568.327 852.701C569.137 852.083 569.788 851.261 570.279 850.237C570.769 849.213 571.015 848.125 571.015 846.973C571.015 845.971 570.812 845.043 570.407 844.189C570.001 843.315 569.447 842.621 568.743 842.109C568.06 841.576 567.292 841.309 566.439 841.309C565.5 841.309 564.625 841.629 563.815 842.269C563.025 842.888 562.385 843.72 561.895 844.765C561.425 845.789 561.191 846.877 561.191 848.029C561.191 849.139 561.393 850.12 561.799 850.973C562.225 851.805 562.791 852.456 563.495 852.925C564.199 853.395 564.945 853.629 565.735 853.629ZM578.096 855.453C577.819 855.453 577.574 855.357 577.36 855.165C577.168 854.973 577.072 854.76 577.072 854.525V840.413C577.072 840.136 577.168 839.912 577.36 839.741C577.574 839.549 577.819 839.453 578.096 839.453C578.374 839.453 578.608 839.549 578.8 839.741C578.992 839.912 579.088 840.136 579.088 840.413V845.469C579.707 843.549 580.56 842.077 581.648 841.053C582.758 840.008 584.006 839.485 585.392 839.485C586.566 839.485 587.494 839.784 588.176 840.381C588.859 840.979 589.35 841.928 589.648 843.229C589.947 844.509 590.096 846.237 590.096 848.413C590.096 850.547 590.086 851.944 590.064 852.605V854.429C590.064 854.707 589.968 854.952 589.776 855.165C589.606 855.357 589.382 855.453 589.104 855.453C588.848 855.453 588.624 855.357 588.432 855.165C588.24 854.952 588.144 854.717 588.144 854.461V852.669C588.123 852.008 588.112 850.632 588.112 848.541C588.112 846.557 588.006 845.053 587.792 844.029C587.6 843.005 587.291 842.312 586.864 841.949C586.459 841.565 585.872 841.373 585.104 841.373C584.379 841.373 583.664 841.64 582.96 842.173C582.256 842.707 581.638 843.464 581.104 844.445C580.4 845.725 579.888 846.931 579.568 848.061C579.27 849.192 579.11 850.355 579.088 851.549L579.056 854.397C579.056 854.696 578.96 854.952 578.768 855.165C578.598 855.357 578.374 855.453 578.096 855.453Z" fill="#424346"/>
<rect opacity="0.3" x="989.045" y="819.261" width="52" height="52" rx="12" fill="#D7B030"/>
<path d="M1082.32 855.453C1082.02 855.453 1081.78 855.357 1081.61 855.165C1081.44 854.973 1081.36 854.771 1081.36 854.557C1081.36 854.301 1081.4 854.035 1081.48 853.757L1085.71 834.461C1085.75 834.205 1085.86 834.013 1086.03 833.885C1086.22 833.736 1086.44 833.661 1086.7 833.661C1086.94 833.661 1087.14 833.725 1087.31 833.853C1087.48 833.981 1087.6 834.141 1087.66 834.333L1093 851.293L1099.15 834.301C1099.23 834.109 1099.36 833.96 1099.53 833.853C1099.72 833.725 1099.94 833.661 1100.17 833.661C1100.39 833.661 1100.58 833.736 1100.75 833.885C1100.92 834.035 1101.03 834.227 1101.07 834.461L1105.36 853.661C1105.46 854.024 1105.52 854.323 1105.52 854.557C1105.52 854.792 1105.42 855.005 1105.23 855.197C1105.04 855.368 1104.8 855.453 1104.52 855.453C1104.27 855.453 1104.04 855.389 1103.85 855.261C1103.68 855.112 1103.58 854.909 1103.53 854.653L1099.88 838.269L1093.9 854.813C1093.84 855.005 1093.71 855.155 1093.52 855.261C1093.35 855.389 1093.15 855.453 1092.94 855.453C1092.73 855.453 1092.54 855.389 1092.36 855.261C1092.19 855.133 1092.08 854.963 1092.01 854.749L1086.86 838.557L1083.31 854.653C1083.27 854.909 1083.15 855.112 1082.96 855.261C1082.79 855.389 1082.57 855.453 1082.32 855.453ZM1114.83 855.453C1113.61 855.453 1112.5 855.133 1111.5 854.493C1110.52 853.832 1109.74 852.947 1109.16 851.837C1108.61 850.707 1108.33 849.459 1108.33 848.093C1108.33 846.643 1108.65 845.256 1109.29 843.933C1109.95 842.611 1110.86 841.544 1112.01 840.733C1113.16 839.901 1114.43 839.485 1115.82 839.485C1117.01 839.485 1118.1 839.816 1119.08 840.477C1120.08 841.117 1120.86 842.003 1121.42 843.133C1121.99 844.243 1122.28 845.469 1122.28 846.813C1122.28 848.349 1121.94 849.779 1121.26 851.101C1120.57 852.424 1119.66 853.48 1118.51 854.269C1117.37 855.059 1116.15 855.453 1114.83 855.453ZM1114.95 853.629C1115.87 853.629 1116.73 853.32 1117.55 852.701C1118.36 852.083 1119.01 851.261 1119.5 850.237C1119.99 849.213 1120.23 848.125 1120.23 846.973C1120.23 845.971 1120.03 845.043 1119.63 844.189C1119.22 843.315 1118.67 842.621 1117.96 842.109C1117.28 841.576 1116.51 841.309 1115.66 841.309C1114.72 841.309 1113.84 841.629 1113.03 842.269C1112.24 842.888 1111.6 843.72 1111.11 844.765C1110.64 845.789 1110.41 846.877 1110.41 848.029C1110.41 849.139 1110.61 850.12 1111.02 850.973C1111.44 851.805 1112.01 852.456 1112.71 852.925C1113.42 853.395 1114.16 853.629 1114.95 853.629ZM1127.31 855.453C1127.04 855.453 1126.79 855.357 1126.58 855.165C1126.39 854.973 1126.29 854.76 1126.29 854.525V840.413C1126.29 840.136 1126.39 839.912 1126.58 839.741C1126.79 839.549 1127.04 839.453 1127.31 839.453C1127.59 839.453 1127.83 839.549 1128.02 839.741C1128.21 839.912 1128.31 840.136 1128.31 840.413V845.469C1128.93 843.549 1129.78 842.077 1130.87 841.053C1131.98 840.008 1133.22 839.485 1134.61 839.485C1135.78 839.485 1136.71 839.784 1137.39 840.381C1138.08 840.979 1138.57 841.928 1138.87 843.229C1139.17 844.509 1139.31 846.237 1139.31 848.413C1139.31 850.547 1139.3 851.944 1139.28 852.605V854.429C1139.28 854.707 1139.19 854.952 1138.99 855.165C1138.82 855.357 1138.6 855.453 1138.32 855.453C1138.07 855.453 1137.84 855.357 1137.65 855.165C1137.46 854.952 1137.36 854.717 1137.36 854.461V852.669C1137.34 852.008 1137.33 850.632 1137.33 848.541C1137.33 846.557 1137.22 845.053 1137.01 844.029C1136.82 843.005 1136.51 842.312 1136.08 841.949C1135.68 841.565 1135.09 841.373 1134.32 841.373C1133.6 841.373 1132.88 841.64 1132.18 842.173C1131.47 842.707 1130.86 843.464 1130.32 844.445C1129.62 845.725 1129.11 846.931 1128.79 848.061C1128.49 849.192 1128.33 850.355 1128.31 851.549L1128.27 854.397C1128.27 854.696 1128.18 854.952 1127.99 855.165C1127.82 855.357 1127.59 855.453 1127.31 855.453ZM1149.45 855.453C1148.23 855.453 1147.13 855.133 1146.12 854.493C1145.14 853.832 1144.36 852.947 1143.79 851.837C1143.23 850.707 1142.95 849.459 1142.95 848.093C1142.95 846.643 1143.27 845.256 1143.91 843.933C1144.58 842.611 1145.48 841.544 1146.63 840.733C1147.79 839.901 1149.06 839.485 1150.44 839.485C1151.64 839.485 1152.73 839.816 1153.71 840.477C1154.71 841.117 1155.49 842.003 1156.04 843.133C1156.62 844.243 1156.91 845.469 1156.91 846.813C1156.91 848.349 1156.57 849.779 1155.88 851.101C1155.2 852.424 1154.28 853.48 1153.13 854.269C1152 855.059 1150.77 855.453 1149.45 855.453ZM1149.58 853.629C1150.5 853.629 1151.36 853.32 1152.17 852.701C1152.98 852.083 1153.63 851.261 1154.12 850.237C1154.61 849.213 1154.86 848.125 1154.86 846.973C1154.86 845.971 1154.66 845.043 1154.25 844.189C1153.85 843.315 1153.29 842.621 1152.59 842.109C1151.9 841.576 1151.14 841.309 1150.28 841.309C1149.34 841.309 1148.47 841.629 1147.66 842.269C1146.87 842.888 1146.23 843.72 1145.74 844.765C1145.27 845.789 1145.03 846.877 1145.03 848.029C1145.03 849.139 1145.24 850.12 1145.64 850.973C1146.07 851.805 1146.63 852.456 1147.34 852.925C1148.04 853.395 1148.79 853.629 1149.58 853.629ZM1166.87 855.453C1165.63 855.453 1164.47 855.155 1163.38 854.557C1162.31 853.939 1161.46 853.096 1160.82 852.029C1160.2 850.963 1159.89 849.789 1159.89 848.509C1159.89 847.059 1160.22 845.64 1160.88 844.253C1161.57 842.845 1162.46 841.704 1163.57 840.829C1164.68 839.933 1165.83 839.485 1167.03 839.485C1168.14 839.485 1169.04 839.667 1169.75 840.029C1170.47 840.392 1171.17 840.957 1171.83 841.725C1172 841.896 1172.08 842.12 1172.08 842.397C1172.08 842.675 1171.99 842.909 1171.8 843.101C1171.63 843.293 1171.4 843.389 1171.12 843.389C1170.83 843.389 1170.58 843.272 1170.39 843.037C1169.92 842.483 1169.44 842.067 1168.95 841.789C1168.46 841.491 1167.84 841.341 1167.09 841.341C1166.24 841.341 1165.41 841.683 1164.6 842.365C1163.79 843.048 1163.12 843.944 1162.61 845.053C1162.1 846.141 1161.84 847.272 1161.84 848.445C1161.84 849.512 1162.09 850.44 1162.58 851.229C1163.09 851.997 1163.73 852.584 1164.5 852.989C1165.29 853.395 1166.08 853.597 1166.87 853.597C1168.7 853.597 1170.13 852.861 1171.16 851.389C1171.43 851.005 1171.73 850.813 1172.05 850.813C1172.33 850.813 1172.56 850.909 1172.76 851.101C1172.95 851.293 1173.04 851.517 1173.04 851.773C1173.04 851.987 1172.94 852.232 1172.72 852.509C1172.17 853.32 1171.37 854.013 1170.32 854.589C1169.28 855.165 1168.13 855.453 1166.87 855.453ZM1180.71 855.549C1179.51 855.549 1178.56 855.283 1177.86 854.749C1177.17 854.216 1176.67 853.309 1176.35 852.029C1176.03 850.749 1175.87 848.968 1175.87 846.685C1175.87 844.232 1176 842.216 1176.26 840.637C1176.32 840.211 1176.43 839.912 1176.58 839.741C1176.75 839.549 1176.98 839.453 1177.28 839.453C1177.54 839.453 1177.75 839.539 1177.92 839.709C1178.11 839.88 1178.21 840.115 1178.21 840.413C1178.21 840.733 1178.18 841.149 1178.11 841.661C1177.92 843.197 1177.83 845.128 1177.83 847.453C1177.83 849.693 1178.05 851.304 1178.5 852.285C1178.95 853.267 1179.69 853.757 1180.74 853.757C1181.7 853.757 1182.66 853.512 1183.62 853.021C1184.6 852.509 1185.29 852.019 1185.7 851.549C1185.95 851.251 1186.08 850.771 1186.08 850.109L1186.21 840.349C1186.21 840.093 1186.31 839.88 1186.5 839.709C1186.69 839.539 1186.91 839.453 1187.17 839.453C1187.43 839.453 1187.65 839.539 1187.84 839.709C1188.03 839.88 1188.13 840.093 1188.13 840.349V854.461C1188.13 854.717 1188.02 854.952 1187.81 855.165C1187.6 855.357 1187.35 855.453 1187.07 855.453C1186.73 855.453 1186.45 855.347 1186.24 855.133C1186.05 854.92 1185.95 854.653 1185.95 854.333V853.117C1185.48 853.736 1184.76 854.301 1183.78 854.813C1182.82 855.304 1181.79 855.549 1180.71 855.549ZM1193.72 855.453C1193.47 855.453 1193.23 855.368 1193.02 855.197C1192.8 855.005 1192.7 854.792 1192.7 854.557V834.429C1192.7 834.152 1192.79 833.928 1192.99 833.757C1193.18 833.565 1193.42 833.469 1193.72 833.469C1193.98 833.469 1194.2 833.565 1194.39 833.757C1194.61 833.949 1194.71 834.173 1194.71 834.429V854.557C1194.71 854.792 1194.61 855.005 1194.39 855.197C1194.2 855.368 1193.98 855.453 1193.72 855.453ZM1210.23 855.709C1209.91 855.709 1209.66 855.603 1209.49 855.389C1209.32 855.197 1209.23 854.952 1209.23 854.653V853.757C1208.66 854.269 1207.96 854.685 1207.15 855.005C1206.34 855.304 1205.53 855.453 1204.72 855.453C1203.57 855.453 1202.53 855.165 1201.62 854.589C1200.7 854.013 1199.97 853.203 1199.44 852.157C1198.93 851.091 1198.67 849.885 1198.67 848.541C1198.67 847.091 1198.97 845.672 1199.57 844.285C1200.19 842.877 1201.07 841.725 1202.23 840.829C1203.4 839.933 1204.77 839.485 1206.35 839.485C1207.33 839.485 1208.2 839.613 1208.95 839.869C1209.69 840.125 1210.45 840.435 1211.22 840.797V854.653C1211.22 854.952 1211.12 855.197 1210.93 855.389C1210.74 855.603 1210.5 855.709 1210.23 855.709ZM1204.72 853.565C1205.55 853.565 1206.39 853.373 1207.22 852.989C1208.05 852.584 1208.69 852.157 1209.14 851.709L1209.27 842.013C1208.92 841.864 1208.48 841.725 1207.92 841.597C1207.39 841.448 1206.89 841.373 1206.42 841.373C1205.37 841.373 1204.41 841.683 1203.54 842.301C1202.66 842.92 1201.97 843.773 1201.46 844.861C1200.97 845.928 1200.72 847.133 1200.72 848.477C1200.72 850.035 1201.09 851.272 1201.84 852.189C1202.59 853.107 1203.55 853.565 1204.72 853.565ZM1217.22 855.453C1216.97 855.453 1216.73 855.357 1216.52 855.165C1216.3 854.973 1216.2 854.76 1216.2 854.525V840.445C1216.2 840.168 1216.29 839.944 1216.49 839.773C1216.7 839.581 1216.94 839.485 1217.22 839.485C1217.52 839.485 1217.77 839.581 1217.96 839.773C1218.15 839.944 1218.25 840.168 1218.25 840.445V843.165C1218.84 842.12 1219.58 841.235 1220.45 840.509C1221.35 839.763 1222.39 839.389 1223.59 839.389C1224.53 839.389 1225.2 839.656 1225.61 840.189C1226.03 840.701 1226.25 841.32 1226.25 842.045V843.069C1226.25 843.347 1226.15 843.581 1225.96 843.773C1225.77 843.944 1225.53 844.029 1225.25 844.029C1224.93 844.029 1224.7 843.933 1224.55 843.741C1224.4 843.549 1224.33 843.315 1224.33 843.037V842.301C1224.33 841.683 1223.96 841.373 1223.24 841.373C1221.98 841.373 1220.68 842.269 1219.33 844.061C1219.01 844.488 1218.75 845.021 1218.53 845.661C1218.34 846.301 1218.25 846.899 1218.25 847.453L1218.21 854.525C1218.21 854.76 1218.11 854.973 1217.89 855.165C1217.7 855.357 1217.48 855.453 1217.22 855.453ZM1243.64 855.485C1243.21 855.485 1242.9 855.251 1242.71 854.781L1237.01 840.829C1236.97 840.659 1236.95 840.541 1236.95 840.477C1236.95 840.2 1237.04 839.965 1237.24 839.773C1237.45 839.581 1237.7 839.485 1238 839.485C1238.41 839.485 1238.72 839.709 1238.93 840.157L1243.64 852.029L1248.37 840.061C1248.46 839.891 1248.57 839.752 1248.72 839.645C1248.89 839.517 1249.09 839.453 1249.3 839.453C1249.58 839.453 1249.81 839.56 1250 839.773C1250.22 839.965 1250.32 840.189 1250.32 840.445C1250.32 840.573 1250.28 840.723 1250.2 840.893L1244.56 854.845C1244.37 855.272 1244.06 855.485 1243.64 855.485ZM1254.23 836.957C1253.95 836.957 1253.71 836.861 1253.52 836.669C1253.33 836.477 1253.23 836.243 1253.23 835.965L1253.27 834.653C1253.27 834.397 1253.37 834.173 1253.59 833.981C1253.8 833.789 1254.03 833.693 1254.29 833.693C1254.55 833.693 1254.77 833.8 1254.96 834.013C1255.15 834.205 1255.25 834.429 1255.25 834.685L1255.22 835.997C1255.22 836.275 1255.11 836.509 1254.9 836.701C1254.71 836.872 1254.48 836.957 1254.23 836.957ZM1254.03 855.453C1253.76 855.453 1253.51 855.357 1253.3 855.165C1253.09 854.952 1252.98 854.707 1252.98 854.429L1253.17 840.541C1253.17 840.264 1253.28 840.019 1253.49 839.805C1253.7 839.592 1253.95 839.485 1254.23 839.485C1254.5 839.485 1254.74 839.592 1254.93 839.805C1255.14 839.997 1255.25 840.243 1255.25 840.541L1255.06 854.429C1255.06 854.707 1254.95 854.952 1254.74 855.165C1254.55 855.357 1254.31 855.453 1254.03 855.453ZM1264.32 855.517C1263.11 855.517 1262.05 855.272 1261.16 854.781C1260.28 854.269 1259.61 853.683 1259.14 853.021C1258.69 852.339 1258.47 851.763 1258.47 851.293C1258.47 851.016 1258.55 850.792 1258.72 850.621C1258.92 850.429 1259.15 850.333 1259.43 850.333C1259.9 850.333 1260.2 850.557 1260.32 851.005C1260.62 851.859 1261.12 852.52 1261.83 852.989C1262.53 853.459 1263.4 853.693 1264.42 853.693C1265.44 853.693 1266.29 853.416 1266.95 852.861C1267.61 852.307 1267.94 851.645 1267.94 850.877C1267.94 850.429 1267.83 850.056 1267.62 849.757C1267.43 849.437 1267.07 849.139 1266.53 848.861C1266.02 848.584 1265.26 848.296 1264.26 847.997C1262.53 847.464 1261.28 846.845 1260.52 846.141C1259.75 845.437 1259.36 844.509 1259.36 843.357C1259.36 842.205 1259.83 841.277 1260.77 840.573C1261.73 839.848 1263.1 839.485 1264.87 839.485C1266.47 839.485 1267.7 839.816 1268.55 840.477C1269.42 841.117 1269.86 842.003 1269.86 843.133C1269.86 843.645 1269.78 844.04 1269.6 844.317C1269.43 844.573 1269.19 844.701 1268.87 844.701C1268.59 844.701 1268.36 844.616 1268.16 844.445C1267.97 844.253 1267.88 844.04 1267.88 843.805C1267.88 843.699 1267.89 843.581 1267.91 843.453C1267.95 843.325 1267.97 843.208 1267.97 843.101C1267.97 842.525 1267.72 842.077 1267.2 841.757C1266.69 841.416 1265.91 841.245 1264.87 841.245C1263.72 841.245 1262.82 841.437 1262.18 841.821C1261.56 842.184 1261.25 842.707 1261.25 843.389C1261.25 844.051 1261.52 844.573 1262.05 844.957C1262.61 845.341 1263.56 845.757 1264.9 846.205C1266.18 846.632 1267.16 847.037 1267.84 847.421C1268.55 847.805 1269.05 848.264 1269.35 848.797C1269.67 849.309 1269.83 849.971 1269.83 850.781C1269.83 851.571 1269.59 852.328 1269.12 853.053C1268.68 853.779 1268.04 854.376 1267.2 854.845C1266.37 855.293 1265.41 855.517 1264.32 855.517ZM1274.79 836.957C1274.51 836.957 1274.28 836.861 1274.08 836.669C1273.89 836.477 1273.8 836.243 1273.8 835.965L1273.83 834.653C1273.83 834.397 1273.94 834.173 1274.15 833.981C1274.36 833.789 1274.6 833.693 1274.85 833.693C1275.11 833.693 1275.33 833.8 1275.52 834.013C1275.72 834.205 1275.81 834.429 1275.81 834.685L1275.78 835.997C1275.78 836.275 1275.67 836.509 1275.46 836.701C1275.27 836.872 1275.04 836.957 1274.79 836.957ZM1274.6 855.453C1274.32 855.453 1274.07 855.357 1273.86 855.165C1273.65 854.952 1273.54 854.707 1273.54 854.429L1273.73 840.541C1273.73 840.264 1273.84 840.019 1274.05 839.805C1274.27 839.592 1274.51 839.485 1274.79 839.485C1275.07 839.485 1275.3 839.592 1275.49 839.805C1275.71 839.997 1275.81 840.243 1275.81 840.541L1275.62 854.429C1275.62 854.707 1275.51 854.952 1275.3 855.165C1275.11 855.357 1274.87 855.453 1274.6 855.453ZM1286.26 855.453C1285.05 855.453 1283.94 855.133 1282.93 854.493C1281.95 853.832 1281.17 852.947 1280.6 851.837C1280.04 850.707 1279.77 849.459 1279.77 848.093C1279.77 846.643 1280.09 845.256 1280.73 843.933C1281.39 842.611 1282.29 841.544 1283.45 840.733C1284.6 839.901 1285.87 839.485 1287.25 839.485C1288.45 839.485 1289.54 839.816 1290.52 840.477C1291.52 841.117 1292.3 842.003 1292.85 843.133C1293.43 844.243 1293.72 845.469 1293.72 846.813C1293.72 848.349 1293.38 849.779 1292.69 851.101C1292.01 852.424 1291.09 853.48 1289.94 854.269C1288.81 855.059 1287.59 855.453 1286.26 855.453ZM1286.39 853.629C1287.31 853.629 1288.17 853.32 1288.98 852.701C1289.79 852.083 1290.44 851.261 1290.93 850.237C1291.43 849.213 1291.67 848.125 1291.67 846.973C1291.67 845.971 1291.47 845.043 1291.06 844.189C1290.66 843.315 1290.1 842.621 1289.4 842.109C1288.72 841.576 1287.95 841.309 1287.09 841.309C1286.16 841.309 1285.28 841.629 1284.47 842.269C1283.68 842.888 1283.04 843.72 1282.55 844.765C1282.08 845.789 1281.85 846.877 1281.85 848.029C1281.85 849.139 1282.05 850.12 1282.45 850.973C1282.88 851.805 1283.45 852.456 1284.15 852.925C1284.85 853.395 1285.6 853.629 1286.39 853.629ZM1298.75 855.453C1298.48 855.453 1298.23 855.357 1298.02 855.165C1297.82 854.973 1297.73 854.76 1297.73 854.525V840.413C1297.73 840.136 1297.82 839.912 1298.02 839.741C1298.23 839.549 1298.48 839.453 1298.75 839.453C1299.03 839.453 1299.26 839.549 1299.46 839.741C1299.65 839.912 1299.74 840.136 1299.74 840.413V845.469C1300.36 843.549 1301.22 842.077 1302.3 841.053C1303.41 840.008 1304.66 839.485 1306.05 839.485C1307.22 839.485 1308.15 839.784 1308.83 840.381C1309.52 840.979 1310.01 841.928 1310.3 843.229C1310.6 844.509 1310.75 846.237 1310.75 848.413C1310.75 850.547 1310.74 851.944 1310.72 852.605V854.429C1310.72 854.707 1310.62 854.952 1310.43 855.165C1310.26 855.357 1310.04 855.453 1309.76 855.453C1309.5 855.453 1309.28 855.357 1309.09 855.165C1308.9 854.952 1308.8 854.717 1308.8 854.461V852.669C1308.78 852.008 1308.77 850.632 1308.77 848.541C1308.77 846.557 1308.66 845.053 1308.45 844.029C1308.26 843.005 1307.95 842.312 1307.52 841.949C1307.12 841.565 1306.53 841.373 1305.76 841.373C1305.04 841.373 1304.32 841.64 1303.62 842.173C1302.91 842.707 1302.29 843.464 1301.76 844.445C1301.06 845.725 1300.54 846.931 1300.22 848.061C1299.93 849.192 1299.77 850.355 1299.74 851.549L1299.71 854.397C1299.71 854.696 1299.62 854.952 1299.42 855.165C1299.25 855.357 1299.03 855.453 1298.75 855.453Z" fill="#424346"/>
</svg>
